<svg xmlns="http://www.w3.org/2000/svg" xmlns:xlink="http://www.w3.org/1999/xlink" viewBox="0 0 4880.28 2464"><defs><style>.cls-1{isolation:isolate;}.cls-2{fill:url(#linear-gradient);}.cls-3{opacity:0.3;}.cls-4{mix-blend-mode:screen;}.cls-5{fill:url(#radial-gradient);}.cls-6{fill:url(#radial-gradient-2);}.cls-7{fill:url(#radial-gradient-3);}.cls-8{fill:url(#radial-gradient-4);}.cls-9{fill:url(#radial-gradient-5);}.cls-10{fill:url(#radial-gradient-6);}.cls-11{fill:url(#radial-gradient-7);}.cls-12{fill:url(#radial-gradient-8);}.cls-13{fill:url(#radial-gradient-9);}.cls-14{fill:url(#radial-gradient-10);}.cls-15{fill:url(#radial-gradient-11);}.cls-16{fill:url(#radial-gradient-12);}.cls-17{fill:url(#radial-gradient-13);}.cls-18{fill:url(#radial-gradient-14);}.cls-19{fill:url(#radial-gradient-15);}.cls-20{fill:url(#radial-gradient-16);}.cls-21{fill:url(#radial-gradient-17);}.cls-22{fill:url(#radial-gradient-18);}.cls-23{fill:url(#radial-gradient-19);}.cls-24{fill:url(#radial-gradient-20);}.cls-25{fill:url(#radial-gradient-21);}.cls-26{fill:url(#radial-gradient-22);}.cls-27{fill:url(#radial-gradient-23);}.cls-28{fill:url(#radial-gradient-24);}.cls-29{fill:url(#radial-gradient-25);}.cls-30{fill:url(#radial-gradient-26);}.cls-31{fill:url(#radial-gradient-27);}.cls-32{fill:url(#radial-gradient-28);}.cls-33{fill:url(#radial-gradient-29);}.cls-34{fill:url(#radial-gradient-30);}.cls-35{fill:url(#radial-gradient-31);}.cls-36{fill:url(#radial-gradient-32);}.cls-37{fill:url(#radial-gradient-33);}.cls-38{fill:url(#radial-gradient-34);}.cls-39{fill:url(#radial-gradient-35);}.cls-40{fill:url(#radial-gradient-36);}.cls-41{fill:url(#radial-gradient-37);}.cls-42{fill:url(#radial-gradient-38);}.cls-43{fill:url(#radial-gradient-39);}.cls-44{fill:url(#radial-gradient-40);}.cls-45{fill:url(#radial-gradient-41);}.cls-46{fill:url(#radial-gradient-42);}.cls-47{fill:url(#radial-gradient-43);}.cls-48{fill:url(#radial-gradient-44);}.cls-49{fill:url(#radial-gradient-45);}.cls-50{fill:url(#radial-gradient-46);}.cls-51{fill:url(#radial-gradient-47);}.cls-52{fill:url(#radial-gradient-48);}.cls-53{fill:url(#radial-gradient-49);}.cls-54{fill:url(#radial-gradient-50);}.cls-55{fill:url(#radial-gradient-51);}.cls-56{fill:url(#radial-gradient-52);}.cls-57{fill:url(#radial-gradient-53);}.cls-58{fill:url(#radial-gradient-54);}.cls-59{fill:url(#radial-gradient-55);}.cls-60{fill:url(#radial-gradient-56);}.cls-61{fill:url(#radial-gradient-57);}.cls-62{fill:url(#radial-gradient-58);}.cls-63{fill:url(#radial-gradient-59);}.cls-64{fill:url(#radial-gradient-60);}.cls-65{fill:url(#radial-gradient-61);}.cls-66{fill:url(#radial-gradient-62);}.cls-67{fill:url(#radial-gradient-63);}.cls-68{fill:url(#radial-gradient-64);}.cls-69{fill:url(#radial-gradient-65);}.cls-70{fill:url(#radial-gradient-66);}.cls-71{fill:url(#radial-gradient-67);}.cls-72{fill:url(#radial-gradient-68);}.cls-73{fill:url(#radial-gradient-69);}.cls-74{fill:url(#radial-gradient-70);}.cls-75{fill:url(#radial-gradient-71);}.cls-76{fill:url(#radial-gradient-72);}.cls-77{fill:url(#radial-gradient-73);}.cls-78{fill:url(#radial-gradient-74);}.cls-79{fill:url(#radial-gradient-75);}.cls-80{fill:url(#radial-gradient-76);}.cls-81{fill:url(#radial-gradient-77);}.cls-82{fill:url(#radial-gradient-78);}.cls-83{fill:url(#radial-gradient-79);}.cls-84{fill:url(#radial-gradient-80);}.cls-85{fill:url(#radial-gradient-81);}.cls-86{fill:url(#radial-gradient-82);}.cls-87{fill:url(#radial-gradient-83);}.cls-88{fill:url(#radial-gradient-84);}.cls-89{fill:url(#radial-gradient-85);}.cls-90{fill:url(#radial-gradient-86);}.cls-91{fill:url(#radial-gradient-87);}.cls-92{fill:url(#radial-gradient-88);}.cls-93{fill:url(#radial-gradient-89);}.cls-94{fill:url(#radial-gradient-90);}.cls-95{fill:url(#radial-gradient-91);}.cls-96{fill:url(#radial-gradient-92);}.cls-97{fill:url(#radial-gradient-93);}.cls-98{fill:url(#radial-gradient-94);}.cls-99{fill:url(#radial-gradient-95);}.cls-100{fill:url(#radial-gradient-96);}.cls-101{fill:url(#radial-gradient-97);}.cls-102{fill:url(#radial-gradient-98);}.cls-103{fill:url(#radial-gradient-99);}.cls-104{fill:url(#radial-gradient-100);}.cls-105{fill:url(#radial-gradient-101);}.cls-106{fill:url(#radial-gradient-102);}.cls-107{fill:url(#radial-gradient-103);}.cls-108{fill:url(#radial-gradient-104);}.cls-109{fill:url(#radial-gradient-105);}</style><linearGradient id="linear-gradient" x1="4574.73" y1="2846.62" x2="236.82" y2="-432.62" gradientUnits="userSpaceOnUse"><stop offset="0.02" stop-color="#45108a"/><stop offset="0.29" stop-color="#3d065f"/><stop offset="1" stop-color="#12054e"/><stop offset="1" stop-color="#10054d"/></linearGradient><radialGradient id="radial-gradient" cx="4222.53" cy="913.45" r="515.05" gradientTransform="translate(75.58 -142.35) rotate(2.81)" gradientUnits="userSpaceOnUse"><stop offset="0" stop-color="#b4299a"/><stop offset="0.24" stop-color="#7c1d6d"/><stop offset="0.49" stop-color="#4a1245"/><stop offset="0.71" stop-color="#260a27"/><stop offset="0.89" stop-color="#100616"/><stop offset="1" stop-color="#08040f"/></radialGradient><radialGradient id="radial-gradient-2" cx="4477.33" cy="796.05" r="510.39" xlink:href="#radial-gradient"/><radialGradient id="radial-gradient-3" cx="4645.82" cy="653.65" r="500.79" xlink:href="#radial-gradient"/><radialGradient id="radial-gradient-4" cx="4207.06" cy="493.33" r="500.08" xlink:href="#radial-gradient"/><radialGradient id="radial-gradient-5" cx="4697.27" cy="870.75" r="317.95" xlink:href="#radial-gradient"/><radialGradient id="radial-gradient-6" cx="3809.63" cy="569.28" r="402.92" xlink:href="#radial-gradient"/><radialGradient id="radial-gradient-7" cx="4016.82" cy="696.88" r="551.17" xlink:href="#radial-gradient"/><radialGradient id="radial-gradient-8" cx="4228.08" cy="501.85" r="422.62" xlink:href="#radial-gradient"/><radialGradient id="radial-gradient-9" cx="3734.83" cy="415.95" r="347.66" xlink:href="#radial-gradient"/><radialGradient id="radial-gradient-10" cx="4057.84" cy="526.43" r="365.28" xlink:href="#radial-gradient"/><radialGradient id="radial-gradient-11" cx="4159.08" cy="-81.38" r="19.77" xlink:href="#radial-gradient"/><radialGradient id="radial-gradient-12" cx="3841.31" cy="34.63" r="19.77" xlink:href="#radial-gradient"/><radialGradient id="radial-gradient-13" cx="4250.75" cy="37.87" r="19.77" xlink:href="#radial-gradient"/><radialGradient id="radial-gradient-14" cx="4453.84" cy="-57.34" r="19.77" xlink:href="#radial-gradient"/><radialGradient id="radial-gradient-15" cx="4202.13" cy="147.81" r="19.77" xlink:href="#radial-gradient"/><radialGradient id="radial-gradient-16" cx="4562.07" cy="38.92" r="19.77" xlink:href="#radial-gradient"/><radialGradient id="radial-gradient-17" cx="4691.51" cy="-38.41" r="19.77" xlink:href="#radial-gradient"/><radialGradient id="radial-gradient-18" cx="4858.82" cy="1336.62" r="19.69" xlink:href="#radial-gradient"/><radialGradient id="radial-gradient-19" cx="4507.45" cy="1249.68" r="19.69" xlink:href="#radial-gradient"/><radialGradient id="radial-gradient-20" cx="4407.8" cy="1079.81" r="19.68" xlink:href="#radial-gradient"/><radialGradient id="radial-gradient-21" cx="4381.98" cy="1391.74" r="19.68" xlink:href="#radial-gradient"/><radialGradient id="radial-gradient-22" cx="4035.73" cy="1340.63" r="19.69" xlink:href="#radial-gradient"/><radialGradient id="radial-gradient-23" cx="3944.43" cy="1159.03" r="19.69" xlink:href="#radial-gradient"/><radialGradient id="radial-gradient-24" cx="3615" cy="1276.36" r="19.69" xlink:href="#radial-gradient"/><radialGradient id="radial-gradient-25" cx="4031.9" cy="1008.71" r="19.69" xlink:href="#radial-gradient"/><radialGradient id="radial-gradient-26" cx="3460.33" cy="984.28" r="19.69" xlink:href="#radial-gradient"/><radialGradient id="radial-gradient-27" cx="3404.29" cy="664.39" r="19.68" xlink:href="#radial-gradient"/><radialGradient id="radial-gradient-28" cx="823.01" cy="752.77" r="506.67" gradientTransform="translate(4144 1109.25) rotate(-177.19)" xlink:href="#radial-gradient"/><radialGradient id="radial-gradient-29" cx="1073.66" cy="637.29" r="502.09" gradientTransform="translate(4144 1109.25) rotate(-177.19)" xlink:href="#radial-gradient"/><radialGradient id="radial-gradient-30" cx="1239.4" cy="497.2" r="492.64" gradientTransform="translate(4144 1109.25) rotate(-177.19)" xlink:href="#radial-gradient"/><radialGradient id="radial-gradient-31" cx="807.79" cy="339.49" r="491.94" gradientTransform="translate(4144 1109.25) rotate(-177.19)" xlink:href="#radial-gradient"/><radialGradient id="radial-gradient-32" cx="1290.02" cy="710.77" r="312.77" gradientTransform="translate(4144 1109.25) rotate(-177.19)" xlink:href="#radial-gradient"/><radialGradient id="radial-gradient-33" cx="416.82" cy="414.2" r="396.36" gradientTransform="translate(4144 1109.25) rotate(-177.19)" xlink:href="#radial-gradient"/><radialGradient id="radial-gradient-34" cx="620.64" cy="539.73" r="542.2" gradientTransform="translate(4144 1109.25) rotate(-177.19)" xlink:href="#radial-gradient"/><radialGradient id="radial-gradient-35" cx="828.46" cy="347.86" r="415.74" gradientTransform="translate(4144 1109.25) rotate(-177.19)" xlink:href="#radial-gradient"/><radialGradient id="radial-gradient-36" cx="343.24" cy="263.37" r="342" gradientTransform="translate(4144 1109.25) rotate(-177.19)" xlink:href="#radial-gradient"/><radialGradient id="radial-gradient-37" cx="661" cy="372.05" r="359.33" gradientTransform="translate(4144 1109.25) rotate(-177.19)" xlink:href="#radial-gradient"/><radialGradient id="radial-gradient-38" cx="-243.42" cy="2434.14" r="19.45" gradientTransform="translate(3010.76 3716.81) rotate(-177.19)" xlink:href="#radial-gradient"/><radialGradient id="radial-gradient-39" cx="-556.01" cy="2548.25" r="19.45" gradientTransform="translate(3010.76 3716.81) rotate(-177.19)" xlink:href="#radial-gradient"/><radialGradient id="radial-gradient-40" cx="-153.24" cy="2551.44" r="19.45" gradientTransform="translate(3010.76 3716.81) rotate(-177.19)" xlink:href="#radial-gradient"/><radialGradient id="radial-gradient-41" cx="-63.97" cy="2337.18" r="19.45" gradientTransform="translate(3010.76 3716.81) rotate(-177.19)" xlink:href="#radial-gradient"/><radialGradient id="radial-gradient-42" cx="46.55" cy="2457.78" r="19.45" gradientTransform="translate(3010.76 3716.81) rotate(-177.19)" xlink:href="#radial-gradient"/><radialGradient id="radial-gradient-43" cx="-201.06" cy="2659.59" r="19.45" gradientTransform="translate(3010.76 3716.81) rotate(-177.19)" xlink:href="#radial-gradient"/><radialGradient id="radial-gradient-44" cx="153.02" cy="2552.47" r="19.45" gradientTransform="translate(3010.76 3716.81) rotate(-177.19)" xlink:href="#radial-gradient"/><radialGradient id="radial-gradient-45" cx="280.35" cy="2476.4" r="19.45" gradientTransform="translate(3010.76 3716.81) rotate(-177.19)" xlink:href="#radial-gradient"/><radialGradient id="radial-gradient-46" cx="488.64" cy="2794.84" r="19.45" gradientTransform="translate(3010.76 3716.81) rotate(-177.19)" xlink:href="#radial-gradient"/><radialGradient id="radial-gradient-47" cx="540.72" cy="3033.67" r="19.45" gradientTransform="translate(3010.76 3716.81) rotate(-177.19)" xlink:href="#radial-gradient"/><radialGradient id="radial-gradient-48" cx="1.26" cy="3576.42" r="19.36" gradientTransform="translate(3010.76 3716.81) rotate(-177.19)" xlink:href="#radial-gradient"/><radialGradient id="radial-gradient-49" cx="-454.57" cy="3654.35" r="19.37" gradientTransform="translate(3010.76 3716.81) rotate(-177.19)" xlink:href="#radial-gradient"/><radialGradient id="radial-gradient-50" cx="-778.64" cy="3769.78" r="19.37" gradientTransform="translate(3010.76 3716.81) rotate(-177.19)" xlink:href="#radial-gradient"/><radialGradient id="radial-gradient-51" cx="-368.52" cy="3506.48" r="19.37" gradientTransform="translate(3010.76 3716.81) rotate(-177.19)" xlink:href="#radial-gradient"/><radialGradient id="radial-gradient-52" cx="-930.79" cy="3482.45" r="19.36" gradientTransform="translate(3010.76 3716.81) rotate(-177.19)" xlink:href="#radial-gradient"/><radialGradient id="radial-gradient-53" cx="-985.92" cy="3167.77" r="19.36" gradientTransform="translate(3010.76 3716.81) rotate(-177.19)" xlink:href="#radial-gradient"/><radialGradient id="radial-gradient-54" cx="544.95" cy="-658.34" r="506.67" gradientTransform="translate(4144 1109.25) rotate(-177.19)" xlink:href="#radial-gradient"/><radialGradient id="radial-gradient-55" cx="795.6" cy="-773.82" r="502.09" gradientTransform="translate(4144 1109.25) rotate(-177.19)" xlink:href="#radial-gradient"/><radialGradient id="radial-gradient-56" cx="961.35" cy="-913.91" r="492.64" gradientTransform="translate(4144 1109.25) rotate(-177.19)" xlink:href="#radial-gradient"/><radialGradient id="radial-gradient-57" cx="529.73" cy="-1071.62" r="491.94" gradientTransform="translate(4144 1109.25) rotate(-177.19)" xlink:href="#radial-gradient"/><radialGradient id="radial-gradient-58" cx="1011.96" cy="-700.34" r="312.77" gradientTransform="translate(4144 1109.25) rotate(-177.19)" xlink:href="#radial-gradient"/><radialGradient id="radial-gradient-59" cx="138.77" cy="-996.91" r="396.36" gradientTransform="translate(4144 1109.25) rotate(-177.19)" xlink:href="#radial-gradient"/><radialGradient id="radial-gradient-60" cx="342.59" cy="-871.38" r="542.2" gradientTransform="translate(4144 1109.25) rotate(-177.19)" xlink:href="#radial-gradient"/><radialGradient id="radial-gradient-61" cx="550.41" cy="-1063.24" r="415.74" gradientTransform="translate(4144 1109.25) rotate(-177.19)" xlink:href="#radial-gradient"/><radialGradient id="radial-gradient-62" cx="65.19" cy="-1147.74" r="342" gradientTransform="translate(4144 1109.25) rotate(-177.19)" xlink:href="#radial-gradient"/><radialGradient id="radial-gradient-63" cx="382.94" cy="-1039.05" r="359.33" gradientTransform="translate(4144 1109.25) rotate(-177.19)" xlink:href="#radial-gradient"/><radialGradient id="radial-gradient-64" cx="210.59" cy="1383.74" r="19.45" gradientTransform="translate(3010.76 3716.81) rotate(-177.19)" xlink:href="#radial-gradient"/><radialGradient id="radial-gradient-65" cx="262.66" cy="1622.56" r="19.45" gradientTransform="translate(3010.76 3716.81) rotate(-177.19)" xlink:href="#radial-gradient"/><radialGradient id="radial-gradient-66" cx="166.88" cy="2417.95" r="19.37" gradientTransform="translate(3010.76 3716.81) rotate(-177.19)" xlink:href="#radial-gradient"/><radialGradient id="radial-gradient-67" cx="-178.77" cy="2332.43" r="19.37" gradientTransform="translate(3010.76 3716.81) rotate(-177.19)" xlink:href="#radial-gradient"/><radialGradient id="radial-gradient-68" cx="-276.8" cy="2165.32" r="19.36" gradientTransform="translate(3010.76 3716.81) rotate(-177.19)" xlink:href="#radial-gradient"/><radialGradient id="radial-gradient-69" cx="-302.19" cy="2472.17" r="19.36" gradientTransform="translate(3010.76 3716.81) rotate(-177.19)" xlink:href="#radial-gradient"/><radialGradient id="radial-gradient-70" cx="-642.8" cy="2421.9" r="19.36" gradientTransform="translate(3010.76 3716.81) rotate(-177.19)" xlink:href="#radial-gradient"/><radialGradient id="radial-gradient-71" cx="-732.63" cy="2243.25" r="19.37" gradientTransform="translate(3010.76 3716.81) rotate(-177.19)" xlink:href="#radial-gradient"/><radialGradient id="radial-gradient-72" cx="-1056.7" cy="2358.67" r="19.37" gradientTransform="translate(3010.76 3716.81) rotate(-177.19)" xlink:href="#radial-gradient"/><radialGradient id="radial-gradient-73" cx="-646.58" cy="2095.38" r="19.37" gradientTransform="translate(3010.76 3716.81) rotate(-177.19)" xlink:href="#radial-gradient"/><radialGradient id="radial-gradient-74" cx="-1208.85" cy="2071.34" r="19.36" gradientTransform="translate(3010.76 3716.81) rotate(-177.19)" xlink:href="#radial-gradient"/><radialGradient id="radial-gradient-75" cx="-1263.97" cy="1756.66" r="19.36" gradientTransform="translate(3010.76 3716.81) rotate(-177.19)" xlink:href="#radial-gradient"/><radialGradient id="radial-gradient-76" cx="2244.69" cy="1779.44" r="515.05" xlink:href="#radial-gradient"/><radialGradient id="radial-gradient-77" cx="2499.48" cy="1662.05" r="510.39" xlink:href="#radial-gradient"/><radialGradient id="radial-gradient-78" cx="2667.97" cy="1519.64" r="500.79" xlink:href="#radial-gradient"/><radialGradient id="radial-gradient-79" cx="2229.21" cy="1359.33" r="500.08" xlink:href="#radial-gradient"/><radialGradient id="radial-gradient-80" cx="2719.42" cy="1736.75" r="317.95" xlink:href="#radial-gradient"/><radialGradient id="radial-gradient-81" cx="1831.78" cy="1435.27" r="402.92" xlink:href="#radial-gradient"/><radialGradient id="radial-gradient-82" cx="2038.97" cy="1562.88" r="551.17" xlink:href="#radial-gradient"/><radialGradient id="radial-gradient-83" cx="2250.24" cy="1367.84" r="422.62" xlink:href="#radial-gradient"/><radialGradient id="radial-gradient-84" cx="1756.99" cy="1281.95" r="347.66" xlink:href="#radial-gradient"/><radialGradient id="radial-gradient-85" cx="2080" cy="1392.43" r="365.28" xlink:href="#radial-gradient"/><radialGradient id="radial-gradient-86" cx="2181.23" cy="784.62" r="19.77" xlink:href="#radial-gradient"/><radialGradient id="radial-gradient-87" cx="1863.47" cy="900.63" r="19.77" xlink:href="#radial-gradient"/><radialGradient id="radial-gradient-88" cx="2272.9" cy="903.87" r="19.77" xlink:href="#radial-gradient"/><radialGradient id="radial-gradient-89" cx="2363.65" cy="686.06" r="19.77" xlink:href="#radial-gradient"/><radialGradient id="radial-gradient-90" cx="2476" cy="808.66" r="19.77" xlink:href="#radial-gradient"/><radialGradient id="radial-gradient-91" cx="2224.29" cy="1013.81" r="19.77" xlink:href="#radial-gradient"/><radialGradient id="radial-gradient-92" cx="2584.22" cy="904.92" r="19.77" xlink:href="#radial-gradient"/><radialGradient id="radial-gradient-93" cx="2713.66" cy="827.58" r="19.77" xlink:href="#radial-gradient"/><radialGradient id="radial-gradient-94" cx="2925.4" cy="1151.3" r="19.77" xlink:href="#radial-gradient"/><radialGradient id="radial-gradient-95" cx="2978.34" cy="1394.07" r="19.77" xlink:href="#radial-gradient"/><radialGradient id="radial-gradient-96" cx="2880.98" cy="2202.62" r="19.69" xlink:href="#radial-gradient"/><radialGradient id="radial-gradient-97" cx="2529.6" cy="2115.68" r="19.69" xlink:href="#radial-gradient"/><radialGradient id="radial-gradient-98" cx="2429.95" cy="1945.8" r="19.68" xlink:href="#radial-gradient"/><radialGradient id="radial-gradient-99" cx="2404.14" cy="2257.74" r="19.68" xlink:href="#radial-gradient"/><radialGradient id="radial-gradient-100" cx="2057.89" cy="2206.63" r="19.69" xlink:href="#radial-gradient"/><radialGradient id="radial-gradient-101" cx="1966.58" cy="2025.02" r="19.69" xlink:href="#radial-gradient"/><radialGradient id="radial-gradient-102" cx="1637.15" cy="2142.36" r="19.69" xlink:href="#radial-gradient"/><radialGradient id="radial-gradient-103" cx="2054.06" cy="1874.7" r="19.69" xlink:href="#radial-gradient"/><radialGradient id="radial-gradient-104" cx="1482.48" cy="1850.27" r="19.69" xlink:href="#radial-gradient"/><radialGradient id="radial-gradient-105" cx="1426.45" cy="1530.39" r="19.68" xlink:href="#radial-gradient"/></defs><title>Artboard 57</title><g class="cls-1"><g id="_Layer_" data-name="&lt;Layer&gt;"><rect class="cls-2" y="0.98" width="4880.28" height="2464"/><g class="cls-3"><g class="cls-4"><path class="cls-5" d="M4052.15,1390.1l-2.34-4.55,336.58-173.79L4050.46,994.15a2.6,2.6,0,0,1-1.16-2.3,2.55,2.55,0,0,1,1.42-2.14L4434.09,799,4448,515.61a2.56,2.56,0,0,1,4-2l210,137.83,18.2-370.73L4623,239.58a2.56,2.56,0,0,1-1.09-2.22L4627.11,132l5.11.25-5.11,104,57.16,41.12a2.54,2.54,0,0,1,1.09,2.22l-18.49,376.61a2.55,2.55,0,0,1-4,2l-210-137.83-13.77,280.4a2.55,2.55,0,0,1-1.42,2.16L4057,992.29l335.88,217.58a2.58,2.58,0,0,1,1.16,2.28,2.55,2.55,0,0,1-1.38,2.14Z"/><path class="cls-6" d="M4370.43,1457.35l-294.75-191.74a2.55,2.55,0,0,1,.22-4.41l394.47-205.9a2.53,2.53,0,0,1,2.6.15l141.16,94.85,201.38-101.13,5.72-116.45L4726,872.53a2.56,2.56,0,0,1-1.19-2.29l11-223.69a2.54,2.54,0,0,1,3.87-2L4809.5,687l19.06-388.17a2.56,2.56,0,0,1,4-2l115.18,77-2.83,4.25-111.45-74.54-19,388a2.54,2.54,0,0,1-3.87,2.06l-69.85-42.48L4730,869l95.25,60.18a2.54,2.54,0,0,1,1.19,2.29l-5.86,119.43a2.59,2.59,0,0,1-1.41,2.16l-204.05,102.47a2.57,2.57,0,0,1-2.57-.17l-141.14-94.83-389.23,203.17,291.08,189.36Z"/><path class="cls-7" d="M4848.65,1426.37,4604.89,1267.5a2.54,2.54,0,0,1-1.17-2.29,2.57,2.57,0,0,1,1.42-2.14l202.18-100.36L4473.51,947.39a2.55,2.55,0,0,1,.28-4.45l105-50.36,27.15-552.95a2.55,2.55,0,0,1,4-2l134.55,88.72,17.88-364,5.1.25-18.09,368.52a2.55,2.55,0,0,1-4,2l-134.56-88.72-27,550a2.57,2.57,0,0,1-1.45,2.18l-102.23,49,333.76,215.28a2.55,2.55,0,0,1-.25,4.44l-202.2,100.37,240,156.43Z"/><path class="cls-8" d="M3967.74,1202.7l-2.27-4.58,408.67-201.61L4130.43,841.86a2.55,2.55,0,0,1,.25-4.45l204.74-99.54,6.91-140.55a2.54,2.54,0,0,1,3.94-2l151.66,98.76,19.55-398-112.26-72.78a2.57,2.57,0,0,1-1.16-2.27l15.53-316.19,5.1.25-15.45,314.72,112.25,72.77a2.57,2.57,0,0,1,1.16,2.27l-19.83,403.91a2.55,2.55,0,0,1-3.95,2L4347.21,602l-6.76,137.61a2.54,2.54,0,0,1-1.43,2.17L4137,840l243.69,154.64a2.56,2.56,0,0,1-.24,4.45Z"/><path class="cls-9" d="M4502.62,1320.81l-43.83-32.44a2.57,2.57,0,0,1,.37-4.34l149.11-74.88-94.8-63a2.56,2.56,0,0,1,.31-4.43l199.86-96.24-94.72-65.07a2.56,2.56,0,0,1,.38-4.43l53.92-24.75,9.3-189.31a2.56,2.56,0,0,1,4-2l235.05,156.33,15.69-319.55a2.57,2.57,0,0,1,1.3-2.11,2.6,2.6,0,0,1,2.48,0l50.56,27.58-2.44,4.48-47-25.63-15.72,320a2.54,2.54,0,0,1-1.4,2.15,2.5,2.5,0,0,1-2.56-.15L4687.4,766.71l-9.15,186.36a2.54,2.54,0,0,1-1.49,2.19l-51.24,23.53,94.65,65a2.55,2.55,0,0,1-.34,4.4L4520,1144.41l94.72,62.92a2.56,2.56,0,0,1-.26,4.42l-149.33,75,40.49,30Z"/><path class="cls-10" d="M3495.68,1005.62l-2.31-4.56,94.91-48.71-143.06-91.76a2.56,2.56,0,0,1,.23-4.44L4052.53,552.3l13.91-283.37a2.55,2.55,0,0,1,3.92-2l185,118,7.94-161.77,5.1.25-8.16,166.17a2.54,2.54,0,0,1-3.92,2l-185-118L4057.55,554a2.53,2.53,0,0,1-1.4,2.16L3451.76,858.71l143,91.74a2.55,2.55,0,0,1-.23,4.44Z"/><path class="cls-11" d="M3636.65,1305.26l-2.62-4.39,295.09-176.62L3731.21,998.84a2.57,2.57,0,0,1,.16-4.42L3979.21,863a2.56,2.56,0,0,1,2.58.11L4150,971.22l311-155.47L4469.46,644l-122.29-73.46a2.56,2.56,0,0,1-1.23-2.32l8.26-168.32a2.55,2.55,0,0,1,3.88-2.05l69.85,42.48,19.19-390.8a2.55,2.55,0,0,1,4-2L4520.62,94l3.06-62.39,5.11.25-3.28,66.9a2.56,2.56,0,0,1-4,2L4452,54.26l-19.18,390.57a2.54,2.54,0,0,1-3.87,2.06l-69.85-42.47-8,162.49,122.28,73.47a2.55,2.55,0,0,1,1.23,2.31l-8.58,174.81a2.55,2.55,0,0,1-1.41,2.16L4151,976.44a2.57,2.57,0,0,1-2.52-.13L3980.28,868.17l-242.62,128.7,197.71,125.29a2.55,2.55,0,0,1-.06,4.34Z"/><path class="cls-12" d="M4414.08,1144.84l-190.76-124a2.53,2.53,0,0,1-1.16-2.29,2.56,2.56,0,0,1,1.41-2.14L4425.75,916,4091.94,700.71a2.56,2.56,0,0,1,.28-4.45l105-50.36L4229.28-7.66l5.1.25-32.16,655.08a2.56,2.56,0,0,1-1.45,2.18l-102.22,49L4432.3,914.18a2.49,2.49,0,0,1,1.16,2.29,2.54,2.54,0,0,1-1.41,2.14L4229.86,1019l187,121.58Z"/><path class="cls-13" d="M3637.4,821.1a2.59,2.59,0,0,1-1.28-.42L3451.4,697.54l2.82-4.27L3637.71,815.6,3891.8,690.34l-143-95.18a2.57,2.57,0,0,1-1.13-2.3,2.52,2.52,0,0,1,1.43-2.13l204.73-99.54,5.65-115a2.55,2.55,0,0,1,1.4-2.14,2.51,2.51,0,0,1,2.56.14l138.77,91.07,12.14-247.36L3920.49,95.24l2.73-4.32,195.14,123.42a2.54,2.54,0,0,1,1.19,2.29l-12.43,253.31a2.56,2.56,0,0,1-4,2l-138.78-91.07L3958.88,493a2.54,2.54,0,0,1-1.43,2.17l-202.09,98.25,143,95.17A2.57,2.57,0,0,1,3898,693L3638.67,820.84A2.71,2.71,0,0,1,3637.4,821.1Z"/><path class="cls-14" d="M4040.57,1058.26,3890,960.2a2.56,2.56,0,0,1,.26-4.43l182.39-91.1-94.78-63a2.54,2.54,0,0,1-1.14-2.31,2.59,2.59,0,0,1,1.44-2.13l199.73-96.17-96.42-62.39a2.54,2.54,0,0,1-1.17-2.29,2.6,2.6,0,0,1,1.43-2.15l55.86-27.44L4143.17,494a2.56,2.56,0,0,1,4-2l145.59,96.73L4316,114.07l5.1.25L4297.6,593.43a2.55,2.55,0,0,1-4,2L4148.05,498.7l-5.39,109.89a2.56,2.56,0,0,1-1.43,2.16l-53.16,26.12,96.45,62.41a2.58,2.58,0,0,1,1.17,2.31,2.61,2.61,0,0,1-1.45,2.14l-199.78,96.2,94.71,62.93a2.55,2.55,0,0,1-.27,4.41l-182.35,91.08L4043.36,1054Z"/><path class="cls-15" d="M4239.28,2.44a16.16,16.16,0,0,1-7.87-2.79c-8.84-5.7-15.36-18.36-14.85-28.8.39-7.85,5-12.92,11.44-12.6a16,16,0,0,1,7.86,2.79c8.85,5.7,15.37,18.35,14.86,28.79C4250.34-2.31,4245.74,2.75,4239.28,2.44Zm-11.53-39.09c-3.57-.17-5.84,2.73-6.09,7.75-.41,8.5,5.32,19.6,12.52,24.25a11.23,11.23,0,0,0,5.35,2c3.56.18,5.84-2.72,6.09-7.75.42-8.5-5.32-19.6-12.53-24.25A11.3,11.3,0,0,0,4227.75-36.65Z"/><path class="cls-16" d="M3916.21,102.72a16.22,16.22,0,0,1-7.87-2.79c-8.84-5.7-15.36-18.35-14.85-28.8.4-8,4.88-12.92,11.44-12.6a16.14,16.14,0,0,1,7.87,2.8c8.84,5.69,15.36,18.34,14.85,28.79C3927.26,98,3922.67,103,3916.21,102.72Zm-11.53-39.08c-3.57-.18-5.84,2.72-6.08,7.74-.42,8.51,5.31,19.61,12.51,24.26a11.34,11.34,0,0,0,5.35,2c3.57.18,5.84-2.72,6.08-7.75.42-8.49-5.31-19.6-12.51-24.24A11.23,11.23,0,0,0,3904.68,63.64Z"/><path class="cls-17" d="M4325,126a16.1,16.1,0,0,1-7.87-2.78c-8.83-5.7-15.36-18.35-14.84-28.8.39-8,4.87-12.92,11.43-12.6a16,16,0,0,1,7.87,2.79c8.84,5.7,15.37,18.35,14.86,28.8C4336.05,121.29,4331.45,126.35,4325,126ZM4313.46,87c-3.57-.17-5.84,2.72-6.08,7.75-.42,8.5,5.32,19.61,12.51,24.25a11.23,11.23,0,0,0,5.35,2c3.56.18,5.84-2.72,6.09-7.75.42-8.5-5.32-19.6-12.52-24.25A11.29,11.29,0,0,0,4313.46,87Z"/><path class="cls-18" d="M4532.51,40.9a16.09,16.09,0,0,1-7.86-2.79c-8.84-5.7-15.37-18.34-14.86-28.79.39-7.86,5-12.92,11.45-12.6a16,16,0,0,1,7.86,2.79c8.84,5.69,15.36,18.34,14.85,28.79C4543.56,36.27,4539.07,41.22,4532.51,40.9ZM4521,1.82c-3.57-.17-5.84,2.72-6.09,7.75-.42,8.5,5.31,19.6,12.52,24.25a11.27,11.27,0,0,0,5.34,2c3.57.18,5.84-2.72,6.09-7.74.41-8.51-5.31-19.61-12.52-24.25A11.37,11.37,0,0,0,4521,1.82Z"/><path class="cls-19" d="M4271.05,233.46a16.12,16.12,0,0,1-7.87-2.79c-8.84-5.7-15.37-18.35-14.85-28.8.38-7.85,5-12.92,11.43-12.6a16.16,16.16,0,0,1,7.87,2.79c8.84,5.7,15.37,18.36,14.86,28.8C4282.1,228.71,4277.5,233.78,4271.05,233.46Zm-11.54-39.08c-3.56-.18-5.83,2.72-6.08,7.74-.41,8.5,5.31,19.61,12.52,24.26a11.27,11.27,0,0,0,5.35,2c3.56.18,5.83-2.72,6.08-7.74.42-8.5-5.32-19.61-12.52-24.26A11.27,11.27,0,0,0,4259.51,194.38Z"/><path class="cls-20" d="M4635.89,142.35a16.09,16.09,0,0,1-7.87-2.79c-8.83-5.7-15.36-18.35-14.85-28.79.39-7.86,5-12.92,11.44-12.61a16.12,16.12,0,0,1,7.86,2.79c8.85,5.7,15.37,18.35,14.85,28.8C4646.94,137.6,4642.34,142.67,4635.89,142.35Zm-11.53-39.08c-3.56-.18-5.84,2.72-6.08,7.75-.42,8.49,5.31,19.6,12.51,24.25a11.33,11.33,0,0,0,5.35,2c3.56.17,5.84-2.73,6.09-7.75.41-8.5-5.32-19.61-12.52-24.26A11.34,11.34,0,0,0,4624.36,103.27Z"/><path class="cls-21" d="M4769,71.45a16,16,0,0,1-7.86-2.79c-8.84-5.69-15.37-18.34-14.85-28.79.38-7.85,5-12.91,11.43-12.6a16.09,16.09,0,0,1,7.88,2.79c8.83,5.69,15.36,18.34,14.85,28.79C4780,66.71,4775.43,71.77,4769,71.45Zm-11.53-39.08c-3.55-.17-5.83,2.73-6.08,7.75-.41,8.5,5.31,19.61,12.52,24.25a11.33,11.33,0,0,0,5.35,2c3.56.17,5.83-2.72,6.08-7.75.42-8.5-5.31-19.6-12.52-24.25A11.29,11.29,0,0,0,4757.43,32.37Z"/><path class="cls-22" d="M4862.42,1445.61a33,33,0,0,1-16.08-4.73c-4.69-3-7.17-7-7-11.22s3-7.89,7.93-10.41c9-4.6,23.85-3.84,32.36,1.64,4.69,3,7.17,7,7,11.23s-3,7.89-7.94,10.41A32.7,32.7,0,0,1,4862.42,1445.61Zm.92-24.35a27.73,27.73,0,0,0-13.7,2.53c-3.21,1.66-5,3.83-5.16,6.11s1.58,4.72,4.63,6.69c7,4.52,19.87,5.18,27.25,1.39,3.22-1.65,5.05-3.82,5.16-6.11s-1.56-4.72-4.61-6.69A28.07,28.07,0,0,0,4863.34,1421.26Z"/><path class="cls-23" d="M4515.73,1341.55a33.13,33.13,0,0,1-16.07-4.74c-4.7-3-7.17-7-7-11.23s3-7.88,7.92-10.4c9-4.6,23.88-3.84,32.37,1.64,4.69,3,7.17,7,7,11.23s-3,7.89-7.93,10.4A32.69,32.69,0,0,1,4515.73,1341.55Zm.94-24.36a27.66,27.66,0,0,0-13.7,2.53c-3.22,1.66-5.06,3.83-5.17,6.11s1.57,4.72,4.63,6.69c7,4.52,19.88,5.17,27.26,1.39,3.21-1.65,5-3.82,5.16-6.11s-1.58-4.72-4.63-6.69A28,28,0,0,0,4516.67,1317.19Z"/><path class="cls-24" d="M4424.54,1167a33,33,0,0,1-16.08-4.73c-4.69-3-7.17-7-7-11.23s3-7.88,7.93-10.41c8.95-4.6,23.85-3.83,32.36,1.65,4.69,3,7.16,7,6.95,11.23s-3,7.88-7.92,10.4A32.7,32.7,0,0,1,4424.54,1167Zm.92-24.35a27.73,27.73,0,0,0-13.7,2.53c-3.21,1.65-5,3.83-5.16,6.11s1.57,4.72,4.63,6.69c7,4.52,19.88,5.18,27.25,1.39,3.22-1.65,5.05-3.82,5.16-6.11s-1.56-4.72-4.62-6.69A28,28,0,0,0,4425.46,1142.64Z"/><path class="cls-25" d="M4383.45,1477.28a33.2,33.2,0,0,1-16.08-4.73c-4.69-3-7.16-7-6.95-11.23s3-7.88,7.93-10.4c8.95-4.6,23.85-3.84,32.36,1.64,4.69,3,7.16,7,7,11.23s-3,7.88-7.94,10.4A32.65,32.65,0,0,1,4383.45,1477.28Zm.93-24.35a27.54,27.54,0,0,0-13.69,2.53c-3.22,1.65-5.06,3.83-5.17,6.11s1.57,4.72,4.63,6.69c7,4.52,19.87,5.18,27.25,1.39,3.22-1.65,5.05-3.82,5.16-6.11s-1.57-4.72-4.62-6.69A28,28,0,0,0,4384.38,1452.93Z"/><path class="cls-26" d="M4040.13,1409.26a33,33,0,0,1-16.08-4.74c-4.69-3-7.17-7-7-11.22s3-7.89,7.93-10.41c9-4.6,23.85-3.84,32.36,1.65,4.69,3,7.17,7,7,11.22s-3,7.88-7.93,10.41A32.81,32.81,0,0,1,4040.13,1409.26Zm.92-24.35a27.62,27.62,0,0,0-13.7,2.52c-3.21,1.65-5,3.83-5.16,6.11s1.58,4.72,4.62,6.69c7,4.52,19.88,5.18,27.26,1.4,3.23-1.66,5-3.83,5.16-6.12s-1.56-4.71-4.61-6.69A28,28,0,0,0,4041.05,1384.91Z"/><path class="cls-27" d="M3957.84,1223.39a33,33,0,0,1-16.08-4.74c-4.7-3-7.17-7-7-11.22s3-7.88,7.93-10.41c8.95-4.6,23.86-3.83,32.36,1.65,4.7,3,7.17,7,7,11.23s-3,7.88-7.93,10.4A32.67,32.67,0,0,1,3957.84,1223.39Zm.92-24.35a27.65,27.65,0,0,0-13.69,2.52c-3.22,1.66-5.06,3.83-5.17,6.12s1.58,4.72,4.63,6.69c7,4.52,19.88,5.18,27.26,1.39,3.21-1.66,5.05-3.82,5.16-6.11s-1.58-4.72-4.63-6.69A28,28,0,0,0,3958.76,1199Z"/><path class="cls-28" d="M3623,1324.43a33,33,0,0,1-16.07-4.74c-4.7-3-7.17-7-7-11.23s3-7.88,7.93-10.4c9-4.6,23.86-3.84,32.36,1.65,4.69,3,7.17,7,7,11.23s-3,7.88-7.93,10.39A32.8,32.8,0,0,1,3623,1324.43Zm.94-24.36a27.66,27.66,0,0,0-13.7,2.53c-3.22,1.66-5.06,3.83-5.17,6.11s1.57,4.72,4.63,6.69c7,4.52,19.88,5.18,27.25,1.39,3.22-1.65,5.05-3.82,5.16-6.1s-1.57-4.72-4.62-6.69A27.92,27.92,0,0,0,3624,1300.07Z"/><path class="cls-29" d="M4052.57,1077.54a33.09,33.09,0,0,1-16.07-4.73c-4.7-3-7.17-7-7-11.23s3-7.89,7.93-10.4c9-4.6,23.85-3.84,32.36,1.64,4.7,3,7.17,7,7,11.23s-3,7.88-7.94,10.4A32.69,32.69,0,0,1,4052.57,1077.54Zm.93-24.34a27.58,27.58,0,0,0-13.7,2.52c-3.21,1.65-5,3.82-5.16,6.11s1.58,4.72,4.63,6.69c7,4.52,19.87,5.17,27.25,1.39,3.22-1.66,5.05-3.82,5.16-6.11s-1.57-4.72-4.62-6.69A27.92,27.92,0,0,0,4053.5,1053.2Z"/><path class="cls-30" d="M3482.89,1025.11a33,33,0,0,1-16.08-4.74c-4.7-3-7.17-7-7-11.23s3-7.88,7.93-10.39c9-4.61,23.86-3.85,32.36,1.64,4.7,3,7.17,7,7,11.23s-3,7.88-7.93,10.39A32.63,32.63,0,0,1,3482.89,1025.11Zm.93-24.35a27.44,27.44,0,0,0-13.7,2.53c-3.22,1.65-5.06,3.82-5.17,6.1s1.58,4.72,4.64,6.69c7,4.53,19.87,5.18,27.25,1.4,3.21-1.65,5-3.82,5.16-6.11s-1.58-4.72-4.63-6.69A27.92,27.92,0,0,0,3483.82,1000.76Z"/><path class="cls-31" d="M3442.6,702.86a33,33,0,0,1-16.07-4.73c-4.69-3-7.17-7-7-11.24s3-7.88,7.93-10.39c8.95-4.6,23.86-3.84,32.36,1.64,4.7,3,7.17,7,7,11.23s-3,7.88-7.93,10.4A32.69,32.69,0,0,1,3442.6,702.86Zm.94-24.35a27.77,27.77,0,0,0-13.71,2.53c-3.21,1.65-5,3.82-5.16,6.11s1.58,4.71,4.63,6.69c7,4.52,19.88,5.17,27.25,1.39,3.23-1.65,5-3.83,5.17-6.11s-1.57-4.72-4.63-6.68A27.89,27.89,0,0,0,3443.54,678.51Z"/></g><g class="cls-4"><path class="cls-32" d="M3551.8-89.27l2.29,4.47L3223,86.16l330.46,214.08a2.51,2.51,0,0,1-.25,4.36L3176.07,492.23,3162.39,771a2.52,2.52,0,0,1-3.9,2L2951.88,637.38,2934,1002.07l56.23,40.45a2.47,2.47,0,0,1,1.07,2.18l-5.09,103.65-5-.24,5-102.26L2930,1005.4a2.51,2.51,0,0,1-1.07-2.18l18.19-370.48a2.47,2.47,0,0,1,1.37-2.12,2.53,2.53,0,0,1,2.52.14l206.61,135.59,13.54-275.83a2.54,2.54,0,0,1,1.39-2.13L3547,302.06,3216.61,88a2.51,2.51,0,0,1,.22-4.34Z"/><path class="cls-33" d="M3238.69-155.43l290,188.62a2.51,2.51,0,0,1-.22,4.34l-388,202.54a2.48,2.48,0,0,1-2.56-.14L2999,146.63l-198.11,99.48-5.62,114.56,93.7,59.2a2.53,2.53,0,0,1,1.17,2.26l-10.81,220a2.49,2.49,0,0,1-1.32,2.1,2.54,2.54,0,0,1-2.49-.07l-68.71-41.79L2788,984.27a2.52,2.52,0,0,1-3.91,2L2670.8,910.45l2.78-4.18,109.63,73.32L2802,598a2.52,2.52,0,0,1,3.81-2l68.72,41.79L2885,423.34l-93.7-59.2a2.55,2.55,0,0,1-1.17-2.25l5.77-117.49a2.54,2.54,0,0,1,1.39-2.13L2998,141.47a2.55,2.55,0,0,1,2.53.17l138.83,93.29L3522.29,35.05,3235.94-151.22Z"/><path class="cls-34" d="M2768.26-124.95l239.8,156.28a2.51,2.51,0,0,1,1.14,2.25,2.54,2.54,0,0,1-1.4,2.11l-198.89,98.73,328.38,211.81a2.51,2.51,0,0,1,1.15,2.27,2.53,2.53,0,0,1-1.42,2.11l-103.27,49.54-26.7,544a2.52,2.52,0,0,1-3.9,2l-132.36-87.27-17.58,358.12-5-.25L2866,854.16a2.52,2.52,0,0,1,3.9-2l132.36,87.28,26.57-541a2.51,2.51,0,0,1,1.42-2.15L3130.79,348,2802.47,136.24a2.5,2.5,0,0,1-1.15-2.25,2.54,2.54,0,0,1,1.4-2.11l198.91-98.74L2765.51-120.74Z"/><path class="cls-35" d="M3634.83,95.07l2.23,4.51-402,198.33,239.74,152.14a2.51,2.51,0,0,1-.25,4.38l-201.41,97.91-6.79,138.26a2.5,2.5,0,0,1-1.37,2.12,2.53,2.53,0,0,1-2.51-.13l-149.2-97.16L3094,986.94l110.42,71.58a2.53,2.53,0,0,1,1.15,2.24l-15.28,311-5-.24,15.2-309.6-110.42-71.59a2.51,2.51,0,0,1-1.14-2.23l19.5-397.34a2.54,2.54,0,0,1,1.37-2.11,2.48,2.48,0,0,1,2.52.14L3261.53,686l6.65-135.37a2.53,2.53,0,0,1,1.41-2.13l198.7-96.61L3228.57,299.75a2.52,2.52,0,0,1,.24-4.38Z"/><path class="cls-36" d="M3108.65-21.11l43.12,31.91a2.52,2.52,0,0,1-.36,4.27L3004.73,88.73,3098,150.67a2.5,2.5,0,0,1-.3,4.35L2901.07,249.7l93.18,64a2.54,2.54,0,0,1,1.08,2.28,2.51,2.51,0,0,1-1.46,2.07l-53,24.36-9.14,186.22a2.55,2.55,0,0,1-1.38,2.13,2.52,2.52,0,0,1-2.53-.15l-231.23-153.8-15.44,314.36a2.51,2.51,0,0,1-3.71,2.08l-49.74-27.13,2.41-4.41,46.22,25.21,15.46-314.77a2.51,2.51,0,0,1,3.9-2L2926.88,524l9-183.32a2.51,2.51,0,0,1,1.47-2.16l50.4-23.14-93.11-64a2.52,2.52,0,0,1,.34-4.34l196.54-94.63-93.18-61.9a2.51,2.51,0,0,1,.26-4.34l146.89-73.77-39.83-29.48Z"/><path class="cls-37" d="M4099.2,289l2.29,4.49-93.38,47.91,140.73,90.27a2.51,2.51,0,0,1-.22,4.36L3551.42,734.9l-13.68,278.75a2.52,2.52,0,0,1-3.86,2l-182-116.11L3344,1058.67l-5-.24L3347,895a2.5,2.5,0,0,1,3.86-2l182,116.11,13.55-275.9a2.52,2.52,0,0,1,1.37-2.12l594.56-297.59L4001.7,343.22a2.51,2.51,0,0,1-1.15-2.25,2.54,2.54,0,0,1,1.37-2.12Z"/><path class="cls-38" d="M3960.53-5.81l2.58,4.31L3672.82,172.25l194.69,123.37a2.51,2.51,0,0,1-.17,4.35L3623.55,429.3a2.54,2.54,0,0,1-2.54-.11l-165.52-106.4L3149.58,475.72l-8.3,169L3261.57,717a2.54,2.54,0,0,1,1.22,2.28l-8.13,165.58a2.52,2.52,0,0,1-3.82,2l-68.71-41.8-18.88,384.44a2.51,2.51,0,0,1-3.91,2L3091,1185.71l-3,61.38-5-.25,3.23-65.81a2.53,2.53,0,0,1,1.38-2.12,2.5,2.5,0,0,1,2.52.16l68.41,45.76,18.86-384.22a2.54,2.54,0,0,1,1.33-2.1,2.51,2.51,0,0,1,2.49.08l68.71,41.78,7.85-159.85L3137.4,648.24a2.5,2.5,0,0,1-1.22-2.27l8.45-172a2.5,2.5,0,0,1,1.38-2.12l308.52-154.24a2.52,2.52,0,0,1,2.48.14l165.48,106.37,238.67-126.61L3666.67,174.31a2.52,2.52,0,0,1,.06-4.28Z"/><path class="cls-39" d="M3195.76,152l187.65,122a2.46,2.46,0,0,1,1.14,2.25,2.54,2.54,0,0,1-1.39,2.11l-198.88,98.72L3512.65,588.9a2.51,2.51,0,0,1-.28,4.38l-103.26,49.54-31.56,642.92-5-.24,31.64-644.42a2.52,2.52,0,0,1,1.42-2.15l100.56-48.24L3177.83,378.9a2.46,2.46,0,0,1-1.14-2.24,2.51,2.51,0,0,1,1.39-2.12L3377,275.81l-184-119.6Z"/><path class="cls-40" d="M3959.79,470.47a2.51,2.51,0,0,1,1.26.41L4142.76,592l-2.77,4.19-180.5-120.34L3709.54,599.1l140.64,93.63a2.55,2.55,0,0,1,1.13,2.27,2.52,2.52,0,0,1-1.42,2.09L3648.49,795l-5.56,113.15a2.51,2.51,0,0,1-1.36,2.12,2.55,2.55,0,0,1-2.53-.14l-136.51-89.59-11.94,243.34,190.72,120.62-2.69,4.26-192-121.42a2.51,2.51,0,0,1-1.17-2.25l12.24-249.19a2.51,2.51,0,0,1,3.89-2l136.51,89.58,5.41-110.24a2.53,2.53,0,0,1,1.42-2.14l198.79-96.65-140.63-93.63a2.48,2.48,0,0,1-1.11-2.25,2.53,2.53,0,0,1,1.39-2.1l255.15-125.78A2.48,2.48,0,0,1,3959.79,470.47Z"/><path class="cls-41" d="M3563.18,237.17l148.1,96.46A2.52,2.52,0,0,1,3711,338L3531.61,427.6l93.24,61.95a2.5,2.5,0,0,1-.31,4.35l-196.47,94.61,94.86,61.38a2.51,2.51,0,0,1,1.14,2.25,2.56,2.56,0,0,1-1.4,2.12l-55,27-5.45,111a2.53,2.53,0,0,1-3.91,2L3315.13,699.1,3292.21,1166l-5-.24,23.14-471.32a2.51,2.51,0,0,1,3.9-2l143.22,95.16,5.31-108.1a2.5,2.5,0,0,1,1.4-2.13l52.3-25.69-94.88-61.4a2.49,2.49,0,0,1-1.15-2.26,2.54,2.54,0,0,1,1.42-2.12l196.54-94.63-93.17-61.9a2.5,2.5,0,0,1,.26-4.34l179.38-89.6-144.42-94.08Z"/><path class="cls-42" d="M3367.71,1275.81a15.72,15.72,0,0,1,7.74,2.74c8.7,5.61,15.11,18.06,14.61,28.34-.38,7.72-4.9,12.7-11.25,12.38a15.72,15.72,0,0,1-7.74-2.74c-8.71-5.61-15.12-18-14.62-28.32C3356.83,1280.48,3361.35,1275.5,3367.71,1275.81Zm11.34,38.45c3.51.17,5.74-2.68,6-7.62.41-8.37-5.23-19.29-12.31-23.87a11.21,11.21,0,0,0-5.27-2c-3.5-.17-5.74,2.69-6,7.64-.41,8.35,5.24,19.28,12.32,23.85A11.21,11.21,0,0,0,3379.05,1314.26Z"/><path class="cls-43" d="M3685.52,1177.16a15.86,15.86,0,0,1,7.74,2.74c8.69,5.61,15.11,18,14.61,28.33-.39,7.84-4.8,12.71-11.25,12.39a15.79,15.79,0,0,1-7.74-2.74c-8.7-5.61-15.12-18.05-14.61-28.32C3674.65,1181.82,3679.17,1176.85,3685.52,1177.16Zm11.34,38.44c3.51.17,5.75-2.68,6-7.62.41-8.36-5.23-19.29-12.31-23.85a11.21,11.21,0,0,0-5.26-2c-3.51-.17-5.75,2.68-6,7.63-.41,8.35,5.23,19.28,12.31,23.85A11.19,11.19,0,0,0,3696.86,1215.6Z"/><path class="cls-44" d="M3283.39,1154.22a15.82,15.82,0,0,1,7.74,2.74c8.69,5.61,15.11,18.06,14.6,28.33-.38,7.85-4.79,12.72-11.24,12.4a15.78,15.78,0,0,1-7.74-2.75c-8.69-5.61-15.12-18-14.61-28.32C3272.52,1158.9,3277,1153.91,3283.39,1154.22Zm11.34,38.45c3.51.17,5.74-2.68,6-7.63.41-8.36-5.23-19.28-12.31-23.85a11.1,11.1,0,0,0-5.27-2c-3.49-.17-5.74,2.68-6,7.62-.41,8.36,5.23,19.29,12.31,23.86A11.14,11.14,0,0,0,3294.73,1192.67Z"/><path class="cls-45" d="M3183.72,1363.85a15.93,15.93,0,0,1,7.74,2.74c8.69,5.61,15.12,18.05,14.61,28.33-.38,7.73-4.9,12.7-11.25,12.39a15.82,15.82,0,0,1-7.74-2.74c-8.69-5.61-15.11-18-14.61-28.33C3172.85,1368.52,3177.37,1363.54,3183.72,1363.85Zm11.35,38.44c3.5.17,5.74-2.68,6-7.62.41-8.36-5.23-19.29-12.32-23.86a11.08,11.08,0,0,0-5.26-1.94c-3.5-.17-5.73,2.68-6,7.62-.41,8.36,5.23,19.28,12.32,23.85A11,11,0,0,0,3195.07,1402.29Z"/><path class="cls-46" d="M3079.25,1238a15.83,15.83,0,0,1,7.73,2.74c8.7,5.61,15.12,18,14.61,28.33-.37,7.72-4.89,12.71-11.25,12.39a15.69,15.69,0,0,1-7.73-2.74c-8.7-5.61-15.12-18-14.61-28.32C3068.38,1242.52,3072.8,1237.65,3079.25,1238Zm11.34,38.45c3.51.17,5.74-2.69,6-7.63.41-8.36-5.22-19.28-12.31-23.85a11.14,11.14,0,0,0-5.26-2c-3.5-.17-5.74,2.68-6,7.63-.42,8.36,5.22,19.28,12.31,23.85A11.14,11.14,0,0,0,3090.59,1276.42Z"/><path class="cls-47" d="M3336.46,1048.54a15.85,15.85,0,0,1,7.74,2.75c8.7,5.61,15.12,18,14.61,28.33-.38,7.72-4.9,12.7-11.25,12.39a15.65,15.65,0,0,1-7.74-2.75c-8.7-5.6-15.12-18-14.61-28.32C3325.59,1053.21,3330.11,1048.23,3336.46,1048.54Zm11.35,38.45c3.5.18,5.74-2.68,6-7.62.41-8.36-5.23-19.28-12.31-23.86a11,11,0,0,0-5.26-1.94c-3.51-.18-5.75,2.67-6,7.62-.41,8.36,5.22,19.29,12.31,23.86A11.08,11.08,0,0,0,3347.81,1087Z"/><path class="cls-48" d="M2977.55,1138.17a15.78,15.78,0,0,1,7.74,2.75c8.7,5.61,15.11,18,14.61,28.32-.38,7.73-4.9,12.71-11.25,12.4a15.65,15.65,0,0,1-7.74-2.75c-8.69-5.6-15.11-18.05-14.61-28.33C2966.68,1142.84,2971.2,1137.86,2977.55,1138.17Zm11.35,38.45c3.5.17,5.74-2.68,6-7.62.41-8.36-5.23-19.29-12.31-23.86a11.07,11.07,0,0,0-5.27-2c-3.5-.17-5.74,2.68-6,7.62-.41,8.37,5.23,19.3,12.31,23.86A11.07,11.07,0,0,0,2988.9,1176.62Z"/><path class="cls-49" d="M2846.64,1207.92a15.82,15.82,0,0,1,7.74,2.74c8.7,5.6,15.11,18,14.61,28.32-.38,7.73-4.9,12.71-11.25,12.4a16,16,0,0,1-7.75-2.74c-8.69-5.61-15.1-18.05-14.6-28.33C2835.77,1212.58,2840.29,1207.61,2846.64,1207.92Zm11.35,38.44c3.5.17,5.73-2.68,6-7.62.41-8.36-5.23-19.29-12.32-23.86a11,11,0,0,0-5.25-1.94c-3.51-.18-5.74,2.67-6,7.61-.41,8.37,5.23,19.29,12.31,23.86A11.1,11.1,0,0,0,2858,1246.36Z"/><path class="cls-50" d="M2654.21,879.63a15.91,15.91,0,0,1,7.75,2.75c8.69,5.61,15.11,18,14.61,28.32-.38,7.73-4.91,12.71-11.26,12.4a15.78,15.78,0,0,1-7.74-2.75c-8.69-5.6-15.11-18.05-14.61-28.33C2643.34,884.3,2647.87,879.32,2654.21,879.63Zm11.35,38.45c3.5.17,5.74-2.68,6-7.62.41-8.37-5.22-19.29-12.31-23.86a11,11,0,0,0-5.27-2c-3.49-.17-5.73,2.68-6,7.62-.41,8.36,5.23,19.29,12.32,23.86A11,11,0,0,0,2665.56,918.08Z"/><path class="cls-51" d="M2613.91,638.54a15.81,15.81,0,0,1,7.74,2.75c8.7,5.6,15.12,18,14.62,28.32-.38,7.72-4.91,12.71-11.26,12.4a15.85,15.85,0,0,1-7.73-2.75c-8.7-5.6-15.12-18-14.61-28.32C2603.05,643.09,2607.47,638.23,2613.91,638.54ZM2625.26,677c3.5.17,5.74-2.68,6-7.62.41-8.36-5.22-19.28-12.31-23.86a11,11,0,0,0-5.26-1.93c-3.51-.18-5.74,2.67-6,7.61-.41,8.37,5.22,19.29,12.31,23.86A11.15,11.15,0,0,0,2625.26,677Z"/><path class="cls-52" d="M3185.47,130.21a32.53,32.53,0,0,1,15.82,4.65c4.61,3,7,6.9,6.84,11s-3,7.76-7.8,10.24c-8.81,4.53-23.47,3.78-31.84-1.61-4.61-3-7-6.91-6.84-11.06s3-7.75,7.8-10.23A32.26,32.26,0,0,1,3185.47,130.21Zm-.91,23.95a27.06,27.06,0,0,0,13.47-2.49c3.17-1.63,5-3.77,5.08-6s-1.55-4.65-4.55-6.58c-6.9-4.45-19.56-5.1-26.81-1.37-3.17,1.63-5,3.76-5.08,6s1.55,4.65,4.55,6.58A27.45,27.45,0,0,0,3184.56,154.16Z"/><path class="cls-53" d="M3644.57,74.72a32.64,32.64,0,0,1,15.82,4.66c4.62,3,7.05,6.9,6.85,11s-3,7.76-7.81,10.24c-8.8,4.53-23.47,3.78-31.83-1.62-4.62-3-7-6.9-6.85-11.05s3-7.75,7.8-10.23A32.26,32.26,0,0,1,3644.57,74.72Zm-.9,24a27,27,0,0,0,13.46-2.49c3.17-1.63,5-3.76,5.08-6s-1.55-4.64-4.55-6.58c-6.9-4.45-19.56-5.09-26.81-1.36-3.16,1.62-5,3.75-5.08,6s1.55,4.64,4.55,6.59A27.6,27.6,0,0,0,3643.67,98.68Z"/><path class="cls-54" d="M3973.92-24.67A32.56,32.56,0,0,1,3989.73-20c4.62,3,7.05,6.9,6.85,11.05s-3,7.75-7.8,10.23C3980,5.79,3965.3,5,3956.94-.35c-4.62-3-7.05-6.91-6.85-11s3-7.75,7.81-10.23A32.24,32.24,0,0,1,3973.92-24.67Zm-.92,24a27.21,27.21,0,0,0,13.48-2.49c3.17-1.63,5-3.76,5.08-6s-1.55-4.64-4.55-6.58c-6.92-4.45-19.56-5.1-26.82-1.37-3.16,1.63-5,3.76-5.08,6s1.55,4.64,4.56,6.58A27.52,27.52,0,0,0,3973-.71Z"/><path class="cls-55" d="M3551.38,218.2a32.49,32.49,0,0,1,15.8,4.65c4.63,3,7.06,6.91,6.86,11.05s-3,7.76-7.8,10.23c-8.81,4.52-23.47,3.78-31.84-1.61-4.62-3-7.05-6.91-6.85-11.05s3-7.75,7.81-10.23A32.13,32.13,0,0,1,3551.38,218.2Zm-.92,24a27.19,27.19,0,0,0,13.48-2.48c3.16-1.63,5-3.77,5.08-6s-1.55-4.65-4.56-6.58c-6.9-4.45-19.55-5.1-26.8-1.37-3.17,1.62-5,3.76-5.09,6s1.55,4.64,4.56,6.57A27.55,27.55,0,0,0,3550.46,242.15Z"/><path class="cls-56" d="M4111.79,269.78a32.32,32.32,0,0,1,15.81,4.66c4.63,3,7.06,6.89,6.85,11s-3,7.76-7.8,10.23c-8.8,4.53-23.47,3.78-31.83-1.61-4.62-3-7.05-6.91-6.85-11.05s3-7.75,7.8-10.23A32.24,32.24,0,0,1,4111.79,269.78Zm-.91,24a27.25,27.25,0,0,0,13.48-2.5c3.16-1.62,5-3.76,5.08-6s-1.55-4.64-4.56-6.58c-6.91-4.45-19.55-5.1-26.81-1.37-3.16,1.62-5,3.75-5.08,6s1.55,4.65,4.55,6.59A27.67,27.67,0,0,0,4110.88,293.74Z"/><path class="cls-57" d="M4151.42,586.78a32.7,32.7,0,0,1,15.81,4.65c4.62,3,7.05,6.92,6.85,11.06s-3,7.75-7.8,10.23c-8.8,4.52-23.47,3.78-31.83-1.62-4.62-3-7.06-6.9-6.85-11.05s3-7.75,7.8-10.22A32.13,32.13,0,0,1,4151.42,586.78Zm-.92,24a27.21,27.21,0,0,0,13.48-2.48c3.16-1.63,5-3.76,5.08-6s-1.55-4.64-4.55-6.58c-6.91-4.45-19.56-5.09-26.81-1.37-3.17,1.63-5,3.76-5.08,6s1.54,4.65,4.55,6.58A27.45,27.45,0,0,0,4150.5,610.73Z"/></g><g class="cls-4"><path class="cls-58" d="M3760.31,1333.77l2.3,4.48-331.1,171L3762,1723.28a2.51,2.51,0,0,1,1.14,2.26,2.47,2.47,0,0,1-1.39,2.1l-377.13,187.64L3370.9,2194a2.51,2.51,0,0,1-3.89,2L3160.4,2060.42l-17.91,364.7,56.23,40.45a2.51,2.51,0,0,1,1.07,2.18l-5.09,103.65-5-.25,5-102.26-56.23-40.45a2.47,2.47,0,0,1-1.07-2.18l18.19-370.48a2.51,2.51,0,0,1,1.36-2.12,2.57,2.57,0,0,1,2.53.14l206.61,135.59,13.54-275.83a2.5,2.5,0,0,1,1.39-2.13l374.51-186.33-330.41-214a2.47,2.47,0,0,1-1.14-2.23,2.52,2.52,0,0,1,1.35-2.11Z"/><path class="cls-59" d="M3447.2,1267.61l290,188.63a2.51,2.51,0,0,1-.21,4.33l-388,202.55a2.48,2.48,0,0,1-2.56-.14l-138.86-93.31-198.11,99.48-5.62,114.56,93.7,59.21a2.48,2.48,0,0,1,1.16,2.25l-10.8,220a2.52,2.52,0,0,1-3.82,2l-68.7-41.78-18.75,381.86a2.52,2.52,0,0,1-3.92,2l-113.31-75.79,2.79-4.18,109.63,73.33L3010.47,2021a2.51,2.51,0,0,1,3.81-2l68.71,41.79,10.53-214.37-93.7-59.2a2.52,2.52,0,0,1-1.17-2.25l5.77-117.49a2.51,2.51,0,0,1,1.38-2.13l200.73-100.79a2.52,2.52,0,0,1,2.53.16L3347.9,1658l382.9-199.87-286.34-186.27Z"/><path class="cls-60" d="M2976.77,1298.09l239.8,156.28a2.5,2.5,0,0,1-.25,4.36l-198.89,98.73,328.38,211.82a2.51,2.51,0,0,1-.27,4.37l-103.27,49.54-26.71,544a2.5,2.5,0,0,1-3.89,2l-132.36-87.27L3061.72,2640l-5-.25,17.8-362.52a2.55,2.55,0,0,1,1.38-2.12,2.5,2.5,0,0,1,2.52.15l132.37,87.27,26.57-541a2.52,2.52,0,0,1,1.42-2.15l100.56-48.24L3011,1559.29a2.5,2.5,0,0,1-1.15-2.26,2.53,2.53,0,0,1,1.39-2.11l198.92-98.74L2974,1302.3Z"/><path class="cls-61" d="M3843.34,1518.12l2.24,4.5-402,198.33,239.75,152.14a2.51,2.51,0,0,1-.25,4.38l-201.41,97.92-6.79,138.25a2.5,2.5,0,0,1-1.37,2.12,2.53,2.53,0,0,1-2.51-.13l-149.2-97.16L3302.56,2410,3413,2481.57a2.49,2.49,0,0,1,1.14,2.24l-15.27,311-5-.25L3409,2485l-110.42-71.58a2.55,2.55,0,0,1-1.15-2.24L3317,2013.85a2.51,2.51,0,0,1,1.37-2.11,2.48,2.48,0,0,1,2.52.13L3470.05,2109l6.65-135.37a2.49,2.49,0,0,1,1.41-2.13l198.69-96.61-239.71-152.12a2.5,2.5,0,0,1-1.16-2.25,2.54,2.54,0,0,1,1.4-2.12Z"/><path class="cls-62" d="M3317.17,1401.93l43.12,31.91a2.55,2.55,0,0,1,1,2.24,2.58,2.58,0,0,1-1.37,2l-146.68,73.65,93.25,61.94a2.52,2.52,0,0,1-.31,4.36l-196.6,94.68,93.17,64a2.51,2.51,0,0,1-.37,4.36l-53,24.35-9.14,186.22a2.55,2.55,0,0,1-1.38,2.13,2.52,2.52,0,0,1-2.53-.15l-231.23-153.8-15.44,314.36a2.5,2.5,0,0,1-1.28,2.07,2.53,2.53,0,0,1-2.43,0l-49.75-27.13,2.41-4.42,46.23,25.22,15.46-314.78a2.51,2.51,0,0,1,3.9-2L3135.4,1947l9-183.33a2.51,2.51,0,0,1,1.47-2.16l50.39-23.14-93.1-64a2.56,2.56,0,0,1-1.09-2.26,2.53,2.53,0,0,1,1.42-2.07L3300,1575.46l-93.19-61.9a2.52,2.52,0,0,1,.27-4.34L3354,1435.45,3314.18,1406Z"/><path class="cls-63" d="M4307.72,1712l2.28,4.49-93.37,47.91,140.73,90.28a2.51,2.51,0,0,1-.23,4.36l-597.19,298.91-13.69,278.75a2.51,2.51,0,0,1-3.86,2l-182-116.11-7.82,159.14-5-.25,8-163.46a2.53,2.53,0,0,1,1.36-2.11,2.46,2.46,0,0,1,2.5.11l182,116.11L3755,2156.23a2.52,2.52,0,0,1,1.38-2.12l594.56-297.6-140.72-90.25a2.52,2.52,0,0,1,.23-4.36Z"/><path class="cls-64" d="M4169.05,1417.23l2.58,4.32L3881.34,1595.3,4076,1718.66a2.51,2.51,0,0,1-.17,4.35l-243.8,129.33a2.52,2.52,0,0,1-2.53-.11L3664,1745.83l-305.92,152.94-8.29,169L3470.09,2140a2.51,2.51,0,0,1,1.21,2.28l-8.13,165.59a2.51,2.51,0,0,1-3.81,2l-68.71-41.79-18.88,384.43a2.5,2.5,0,0,1-1.38,2.12,2.54,2.54,0,0,1-2.53-.15l-68.4-45.77-3,61.38-5-.24,3.23-65.81a2.51,2.51,0,0,1,3.9-2l68.41,45.76,18.86-384.22a2.51,2.51,0,0,1,3.82-2l68.71,41.78,7.85-159.85-120.29-72.27a2.52,2.52,0,0,1-1.22-2.28l8.44-172a2.54,2.54,0,0,1,1.39-2.13l308.52-154.23a2.5,2.5,0,0,1,2.48.13L3831,1847.21l238.67-126.61-194.49-123.25a2.51,2.51,0,0,1,.06-4.27Z"/><path class="cls-65" d="M3404.28,1575l187.65,122a2.52,2.52,0,0,1-.25,4.36l-198.88,98.72,328.37,211.82a2.52,2.52,0,0,1-.28,4.38l-103.26,49.54-31.57,642.93-5-.25,31.64-644.42a2.49,2.49,0,0,1,1.42-2.14l100.56-48.25L3386.35,1802a2.45,2.45,0,0,1-1.14-2.25,2.48,2.48,0,0,1,1.38-2.11l198.91-98.74-184-119.6Z"/><path class="cls-66" d="M4168.31,1893.51a2.54,2.54,0,0,1,1.26.41l181.71,121.14-2.77,4.2L4168,1898.91l-249.94,123.23,140.64,93.64a2.51,2.51,0,0,1-.29,4.35L3857,2218.06l-5.56,113.14a2.51,2.51,0,0,1-3.89,2l-136.51-89.59-12,243.34,190.73,120.63-2.69,4.25-192-121.41a2.51,2.51,0,0,1-1.17-2.26L3706.24,2239a2.52,2.52,0,0,1,3.9-2l136.51,89.59,5.41-110.25a2.55,2.55,0,0,1,1.42-2.14l198.79-96.65-140.63-93.62a2.52,2.52,0,0,1,.28-4.35l255.15-125.79A2.59,2.59,0,0,1,4168.31,1893.51Z"/><path class="cls-67" d="M3771.7,1660.21l148.1,96.47a2.51,2.51,0,0,1-.25,4.35l-179.42,89.62,93.24,61.94a2.51,2.51,0,0,1-.31,4.35l-196.47,94.62,94.85,61.37a2.51,2.51,0,0,1-.26,4.37l-54.95,27-5.46,111a2.52,2.52,0,0,1-3.9,2l-143.22-95.16L3500.73,2589l-5-.25,23.14-471.31a2.51,2.51,0,0,1,3.9-2L3666,2210.66l5.31-108.09a2.51,2.51,0,0,1,1.4-2.14l52.3-25.69-94.89-61.39a2.52,2.52,0,0,1,.28-4.38l196.54-94.64-93.18-61.89a2.52,2.52,0,0,1,.27-4.35l179.38-89.6L3769,1664.42Z"/><path class="cls-68" d="M2862.73,2302.68a15.76,15.76,0,0,1,7.74,2.74c8.7,5.61,15.12,18,14.62,28.33-.38,7.72-4.91,12.71-11.26,12.39a15.76,15.76,0,0,1-7.74-2.74c-8.69-5.61-15.11-18.06-14.61-28.34C2851.86,2307.35,2856.38,2302.36,2862.73,2302.68Zm11.35,38.44c3.5.17,5.74-2.68,6-7.62.41-8.36-5.22-19.29-12.31-23.86a11.14,11.14,0,0,0-5.27-1.95c-3.49-.17-5.73,2.68-6,7.62-.41,8.36,5.23,19.29,12.32,23.87A11.11,11.11,0,0,0,2874.08,2341.12Z"/><path class="cls-69" d="M2822.43,2061.59a15.72,15.72,0,0,1,7.74,2.74c8.7,5.6,15.12,18.05,14.61,28.32-.37,7.72-4.9,12.71-11.25,12.4a15.71,15.71,0,0,1-7.73-2.75c-8.7-5.6-15.12-18-14.62-28.32C2811.57,2066.14,2816,2061.27,2822.43,2061.59Zm11.35,38.44c3.5.17,5.74-2.68,6-7.63.41-8.35-5.22-19.28-12.31-23.85a11.11,11.11,0,0,0-5.27-1.94c-3.5-.17-5.73,2.68-6,7.62-.42,8.36,5.22,19.29,12.3,23.85A11.21,11.21,0,0,0,2833.78,2100Z"/><path class="cls-70" d="M2963.23,1279.16a32.35,32.35,0,0,1,15.81,4.66c4.62,3,7.06,6.89,6.85,11s-3,7.77-7.8,10.24c-8.8,4.53-23.47,3.78-31.83-1.61-4.62-3-7.05-6.91-6.85-11s3-7.75,7.8-10.24A32.13,32.13,0,0,1,2963.23,1279.16Zm-.91,24a27.17,27.17,0,0,0,13.47-2.49c3.17-1.63,5-3.77,5.08-6s-1.55-4.65-4.55-6.58c-6.91-4.45-19.55-5.1-26.81-1.38-3.16,1.63-5,3.77-5.08,6s1.55,4.64,4.55,6.58A27.67,27.67,0,0,0,2962.32,1303.12Z"/><path class="cls-71" d="M3304.27,1381.53a32.53,32.53,0,0,1,15.81,4.66c4.62,3,7.06,6.9,6.85,11s-3,7.75-7.8,10.23c-8.81,4.52-23.48,3.78-31.83-1.62-4.62-3-7.06-6.9-6.85-11s3-7.76,7.8-10.23A32.13,32.13,0,0,1,3304.27,1381.53Zm-.91,24a27.06,27.06,0,0,0,13.47-2.49c3.17-1.63,5-3.76,5.08-6s-1.54-4.64-4.56-6.57c-6.89-4.45-19.54-5.1-26.8-1.37-3.17,1.62-5,3.75-5.08,6s1.55,4.64,4.55,6.57A27.42,27.42,0,0,0,3303.36,1405.49Z"/><path class="cls-72" d="M3394,1553.25a32.59,32.59,0,0,1,15.81,4.65c4.62,3,7,6.9,6.85,11s-3,7.75-7.81,10.24c-8.8,4.52-23.46,3.77-31.83-1.62-4.62-3-7.05-6.91-6.84-11s3-7.76,7.8-10.23A32.24,32.24,0,0,1,3394,1553.25Zm-.92,24a27.21,27.21,0,0,0,13.48-2.48c3.16-1.63,5-3.77,5.08-6s-1.55-4.64-4.56-6.58c-6.89-4.44-19.55-5.09-26.8-1.37-3.17,1.63-5,3.77-5.08,6s1.55,4.65,4.55,6.58A27.45,27.45,0,0,0,3393.07,1577.2Z"/><path class="cls-73" d="M3434.4,1248a32.45,32.45,0,0,1,15.81,4.65c4.62,3,7.05,6.9,6.85,11s-3,7.75-7.8,10.23c-8.81,4.52-23.47,3.78-31.84-1.61-4.61-3-7-6.91-6.84-11s3-7.75,7.8-10.23A32.15,32.15,0,0,1,3434.4,1248Zm-.91,24a27.17,27.17,0,0,0,13.47-2.48c3.17-1.63,5-3.77,5.08-6s-1.55-4.64-4.55-6.57c-6.9-4.45-19.55-5.1-26.81-1.37-3.17,1.62-5,3.76-5.08,6s1.55,4.64,4.55,6.57A27.45,27.45,0,0,0,3433.49,1272Z"/><path class="cls-74" d="M3772.14,1314.93a32.53,32.53,0,0,1,15.82,4.65c4.61,3,7,6.9,6.84,11s-3,7.76-7.8,10.25c-8.81,4.52-23.47,3.77-31.83-1.63-4.62-3-7.05-6.89-6.85-11s3-7.75,7.8-10.24A32.15,32.15,0,0,1,3772.14,1314.93Zm-.91,24a27.06,27.06,0,0,0,13.47-2.49c3.17-1.62,5-3.76,5.08-6s-1.55-4.64-4.55-6.58c-6.9-4.44-19.55-5.09-26.81-1.37-3.17,1.63-5,3.76-5.08,6s1.55,4.63,4.55,6.58A27.52,27.52,0,0,0,3771.23,1338.88Z"/><path class="cls-75" d="M3853.09,1497.77a32.35,32.35,0,0,1,15.81,4.66c4.62,3,7.06,6.9,6.85,11s-3,7.76-7.8,10.24c-8.8,4.53-23.47,3.78-31.83-1.61-4.63-3-7.06-6.91-6.85-11.06s3-7.74,7.8-10.22A32.13,32.13,0,0,1,3853.09,1497.77Zm-.91,24a27.17,27.17,0,0,0,13.47-2.48c3.17-1.63,5-3.76,5.08-6s-1.55-4.64-4.55-6.58c-6.9-4.45-19.56-5.09-26.82-1.36-3.16,1.62-5,3.75-5.07,6s1.55,4.65,4.55,6.59A27.56,27.56,0,0,0,3852.18,1521.72Z"/><path class="cls-76" d="M4182.44,1398.37a32.53,32.53,0,0,1,15.8,4.66c4.63,3,7.06,6.9,6.85,11s-3,7.75-7.79,10.23c-8.82,4.52-23.48,3.78-31.84-1.62-4.62-3-7.05-6.9-6.85-11s3-7.76,7.8-10.23A32.17,32.17,0,0,1,4182.44,1398.37Zm-.92,24a27.23,27.23,0,0,0,13.48-2.49c3.16-1.63,5-3.76,5.08-6s-1.55-4.64-4.55-6.58c-6.92-4.44-19.56-5.1-26.82-1.36-3.16,1.62-5,3.75-5.08,6s1.55,4.64,4.56,6.58A27.38,27.38,0,0,0,4181.52,1422.33Z"/><path class="cls-77" d="M3759.9,1641.24a32.49,32.49,0,0,1,15.8,4.66c4.63,3,7.06,6.9,6.86,11s-3,7.75-7.8,10.23c-8.81,4.52-23.47,3.78-31.84-1.62-4.63-3-7.05-6.9-6.85-11s3-7.76,7.8-10.24A32.3,32.3,0,0,1,3759.9,1641.24Zm-.92,24a27.21,27.21,0,0,0,13.48-2.48c3.16-1.63,5-3.76,5.07-6s-1.54-4.64-4.55-6.58c-6.9-4.45-19.55-5.1-26.8-1.36-3.17,1.62-5,3.75-5.09,6s1.55,4.64,4.55,6.58A27.45,27.45,0,0,0,3759,1665.19Z"/><path class="cls-78" d="M4320.31,1692.82a32.46,32.46,0,0,1,15.81,4.66c4.62,3,7.05,6.89,6.85,11s-3,7.75-7.8,10.23c-8.81,4.52-23.47,3.78-31.83-1.62-4.62-3-7.05-6.9-6.85-11.05s3-7.75,7.8-10.22A32.13,32.13,0,0,1,4320.31,1692.82Zm-.91,24a27.19,27.19,0,0,0,13.47-2.49c3.17-1.63,5-3.77,5.08-6s-1.55-4.64-4.55-6.58c-6.91-4.45-19.56-5.1-26.81-1.37-3.16,1.62-5,3.76-5.08,6s1.55,4.64,4.55,6.58A27.56,27.56,0,0,0,4319.4,1716.78Z"/><path class="cls-79" d="M4359.94,2009.83a32.59,32.59,0,0,1,15.81,4.64c4.62,3,7.05,6.92,6.85,11.06s-3,7.76-7.8,10.23c-8.81,4.52-23.47,3.78-31.83-1.62-4.62-3-7.06-6.9-6.85-11.05s3-7.74,7.8-10.22A32,32,0,0,1,4359.94,2009.83Zm-.92,24a27.21,27.21,0,0,0,13.48-2.49c3.16-1.63,5-3.75,5.08-6s-1.56-4.64-4.56-6.58c-6.9-4.45-19.55-5.09-26.81-1.37-3.16,1.63-5,3.77-5.07,6s1.54,4.64,4.55,6.58A27.41,27.41,0,0,0,4359,2033.78Z"/></g><g class="cls-4"><path class="cls-80" d="M2034.21,2158.06l-2.33-4.55,336.58-173.79L2032.53,1762.1a2.56,2.56,0,0,1,.25-4.43l383.37-190.74,13.92-283.36a2.54,2.54,0,0,1,1.39-2.15,2.5,2.5,0,0,1,2.56.14l210,137.83,18.21-370.74-57.16-41.11a2.51,2.51,0,0,1-1.09-2.22L2609.18,900l5.1.25-5.1,103.95,57.16,41.12a2.56,2.56,0,0,1,1.09,2.22l-18.49,376.6a2.55,2.55,0,0,1-4,2l-210-137.83-13.76,280.4a2.55,2.55,0,0,1-1.42,2.16l-380.7,189.41,335.87,217.58a2.55,2.55,0,0,1-.22,4.42Z"/><path class="cls-81" d="M2352.5,2225.31l-294.75-191.75a2.54,2.54,0,0,1-1.16-2.26,2.58,2.58,0,0,1,1.37-2.15l394.47-205.89a2.51,2.51,0,0,1,2.6.15l141.16,94.84,201.39-101.12,5.72-116.46L2708,1640.49a2.53,2.53,0,0,1-1.18-2.29l11-223.69a2.56,2.56,0,0,1,3.88-2.06l69.85,42.48,19.06-388.18a2.56,2.56,0,0,1,1.4-2.16,2.6,2.6,0,0,1,2.57.16l115.18,77L2927,1146l-111.44-74.53-19.05,388a2.53,2.53,0,0,1-1.35,2.13,2.56,2.56,0,0,1-2.53-.07l-69.84-42.48L2712,1637l95.25,60.18a2.55,2.55,0,0,1,1.19,2.28l-5.87,119.44a2.55,2.55,0,0,1-1.41,2.16l-204,102.46a2.55,2.55,0,0,1-2.56-.16l-141.14-94.84-389.24,203.18L2355.29,2221Z"/><path class="cls-82" d="M2830.71,2194.33,2587,2035.46a2.55,2.55,0,0,1,.26-4.43l202.18-100.36-333.81-215.32a2.54,2.54,0,0,1-1.17-2.31,2.56,2.56,0,0,1,1.44-2.14l105-50.36,27.15-553a2.53,2.53,0,0,1,1.39-2.15,2.57,2.57,0,0,1,2.57.15l134.55,88.71,17.87-364,5.11.25L2731.38,1199a2.56,2.56,0,0,1-4,2l-134.56-88.72-27,550a2.57,2.57,0,0,1-1.45,2.18l-102.23,49,333.75,215.28a2.55,2.55,0,0,1-.25,4.44l-202.19,100.37,240,156.43Z"/><path class="cls-83" d="M1949.81,1970.66l-2.27-4.58,408.67-201.61L2112.5,1609.82a2.53,2.53,0,0,1-1.18-2.3,2.57,2.57,0,0,1,1.43-2.16l204.74-99.54,6.9-140.54a2.55,2.55,0,0,1,4-2L2480,1462l19.54-398-112.25-72.77a2.56,2.56,0,0,1-1.16-2.27l15.53-316.19,5.1.25L2391.3,987.78l112.26,72.77a2.58,2.58,0,0,1,1.16,2.27l-19.84,403.91a2.54,2.54,0,0,1-3.94,2L2329.28,1370l-6.76,137.61a2.57,2.57,0,0,1-1.44,2.17l-202,98.2,243.68,154.64a2.51,2.51,0,0,1,1.18,2.29,2.56,2.56,0,0,1-1.42,2.16Z"/><path class="cls-84" d="M2484.69,2088.77l-43.83-32.44a2.55,2.55,0,0,1,.37-4.34l149.11-74.88-94.8-63a2.56,2.56,0,0,1,.31-4.43l199.86-96.24L2601,1748.41a2.56,2.56,0,0,1,.38-4.43l53.92-24.75,9.29-189.31a2.56,2.56,0,0,1,4-2l235.06,156.34,15.69-319.55a2.55,2.55,0,0,1,3.77-2.12l50.57,27.58-2.45,4.48-47-25.63-15.71,320a2.55,2.55,0,0,1-4,2l-235.07-156.33L2660.31,1721a2.51,2.51,0,0,1-1.48,2.19l-51.24,23.52,94.65,65a2.56,2.56,0,0,1-.34,4.41l-199.79,96.2,94.72,62.92a2.57,2.57,0,0,1-.27,4.42l-149.33,75,40.5,30Z"/><path class="cls-85" d="M1477.75,1773.58l-2.32-4.56,94.92-48.71-143.06-91.76a2.56,2.56,0,0,1,.23-4.44l607.07-303.86,13.91-283.36a2.55,2.55,0,0,1,3.93-2l185,118,8-161.77,5.1.25-8.16,166.17a2.56,2.56,0,0,1-3.93,2l-185-118L2039.62,1322a2.53,2.53,0,0,1-1.4,2.16l-604.39,302.51,143,91.75a2.56,2.56,0,0,1-.23,4.43Z"/><path class="cls-86" d="M1618.72,2073.21l-2.63-4.38,295.1-176.62L1713.27,1766.8a2.56,2.56,0,0,1,.17-4.42l247.84-131.47a2.55,2.55,0,0,1,2.57.11l168.26,108.16,311-155.47,8.43-171.78-122.28-73.46a2.6,2.6,0,0,1-1.24-2.32l8.27-168.32a2.54,2.54,0,0,1,1.36-2.13,2.57,2.57,0,0,1,2.52.07l69.85,42.48,19.19-390.79a2.55,2.55,0,0,1,4-2L2502.69,862l3.06-62.39,5.11.25-3.29,66.9a2.55,2.55,0,0,1-4,2l-69.53-46.52-19.18,390.57a2.56,2.56,0,0,1-3.88,2.06l-69.84-42.48-8,162.5,122.28,73.47a2.54,2.54,0,0,1,1.23,2.31l-8.58,174.81a2.6,2.6,0,0,1-1.41,2.16L2133.09,1744.4a2.57,2.57,0,0,1-2.52-.13l-168.22-108.15-242.63,128.71,197.72,125.29a2.55,2.55,0,0,1-.06,4.34Z"/><path class="cls-87" d="M2396.14,1912.8l-190.76-124a2.53,2.53,0,0,1-1.15-2.29,2.56,2.56,0,0,1,1.41-2.14L2407.81,1684,2074,1468.67a2.55,2.55,0,0,1,.28-4.45l105-50.37,32.09-653.55,5.1.25-32.17,655.08a2.56,2.56,0,0,1-1.44,2.18l-102.22,49,333.75,215.28a2.56,2.56,0,0,1-.26,4.44l-202.18,100.36,187,121.58Z"/><path class="cls-88" d="M1619.47,1589.06a2.66,2.66,0,0,1-1.29-.42l-184.71-123.15,2.82-4.26,183.49,122.33,254.08-125.26-143-95.18a2.57,2.57,0,0,1-1.14-2.31,2.54,2.54,0,0,1,1.43-2.12l204.74-99.54,5.65-115a2.55,2.55,0,0,1,4-2l138.77,91.07,12.15-247.35L1902.56,863.2l2.73-4.32L2100.43,982.3a2.56,2.56,0,0,1,1.19,2.29l-12.44,253.31a2.56,2.56,0,0,1-4,2l-138.77-91.08-5.5,112.08a2.57,2.57,0,0,1-1.44,2.17l-202.08,98.25,143,95.17a2.57,2.57,0,0,1-.28,4.43L1620.73,1588.8A2.65,2.65,0,0,1,1619.47,1589.06Z"/><path class="cls-89" d="M2022.63,1826.22l-150.54-98.06a2.56,2.56,0,0,1,.25-4.43l182.39-91.1-94.78-63a2.56,2.56,0,0,1,.31-4.43L2160,1469.06l-96.43-62.39a2.56,2.56,0,0,1,.26-4.44l55.87-27.44,5.54-112.87a2.56,2.56,0,0,1,4-2l145.59,96.73L2298.1,882l5.09.25-23.52,479.11a2.57,2.57,0,0,1-1.39,2.15,2.54,2.54,0,0,1-2.57-.15l-145.59-96.73-5.4,109.88a2.55,2.55,0,0,1-1.42,2.17l-53.17,26.12,96.46,62.41a2.56,2.56,0,0,1-.28,4.45l-199.79,96.2,94.72,62.93a2.58,2.58,0,0,1,1.14,2.28,2.54,2.54,0,0,1-1.42,2.12l-182.35,91.09,146.82,95.63Z"/><path class="cls-90" d="M2221.35,770.39a16,16,0,0,1-7.87-2.79c-8.84-5.7-15.37-18.35-14.85-28.79.38-7.86,5-12.92,11.43-12.6a16,16,0,0,1,7.87,2.79c8.85,5.7,15.37,18.35,14.86,28.79C2232.4,765.64,2227.81,770.71,2221.35,770.39Zm-11.54-39.08c-3.56-.17-5.83,2.72-6.08,7.75-.42,8.5,5.32,19.6,12.51,24.25a11.36,11.36,0,0,0,5.36,2c3.56.18,5.84-2.72,6.09-7.75.41-8.5-5.33-19.6-12.53-24.25A11.19,11.19,0,0,0,2209.81,731.31Z"/><path class="cls-91" d="M1898.27,870.67a16,16,0,0,1-7.86-2.78c-8.84-5.7-15.36-18.35-14.85-28.8.39-8,4.88-12.92,11.44-12.6a16.16,16.16,0,0,1,7.86,2.79c8.84,5.7,15.37,18.34,14.86,28.79C1909.33,865.93,1904.73,871,1898.27,870.67Zm-11.52-39.07c-3.57-.18-5.84,2.72-6.09,7.74-.41,8.51,5.31,19.61,12.52,24.25a11.27,11.27,0,0,0,5.34,2c3.57.18,5.84-2.72,6.09-7.75.42-8.5-5.32-19.6-12.52-24.25A11.27,11.27,0,0,0,1886.75,831.6Z"/><path class="cls-92" d="M2307.06,894a16,16,0,0,1-7.87-2.79c-8.84-5.69-15.36-18.34-14.85-28.79.39-8,4.88-12.93,11.44-12.6a16,16,0,0,1,7.86,2.79c8.84,5.7,15.37,18.35,14.86,28.79C2318.12,889.24,2313.51,894.31,2307.06,894Zm-11.53-39.08c-3.57-.17-5.84,2.72-6.09,7.75-.41,8.5,5.32,19.61,12.52,24.25a11.23,11.23,0,0,0,5.35,2c3.56.17,5.84-2.72,6.08-7.75.42-8.5-5.31-19.6-12.52-24.25A11.19,11.19,0,0,0,2295.53,854.91Z"/><path class="cls-93" d="M2408.38,680.9a16.19,16.19,0,0,1-7.87-2.79c-8.84-5.7-15.37-18.35-14.85-28.79.38-7.86,5-12.92,11.43-12.6a15.92,15.92,0,0,1,7.87,2.79c8.84,5.69,15.37,18.34,14.86,28.79C2419.43,676.15,2414.83,681.21,2408.38,680.9Zm-11.54-39.08c-3.56-.17-5.83,2.72-6.08,7.75-.41,8.5,5.32,19.6,12.52,24.25a11.27,11.27,0,0,0,5.35,2c3.56.18,5.83-2.72,6.08-7.74.41-8.5-5.32-19.61-12.52-24.25A11.19,11.19,0,0,0,2396.84,641.82Z"/><path class="cls-94" d="M2514.58,808.86a16.22,16.22,0,0,1-7.87-2.79c-8.84-5.7-15.36-18.35-14.85-28.8.39-7.85,5-12.91,11.44-12.59a16.1,16.1,0,0,1,7.87,2.78c8.84,5.7,15.36,18.35,14.85,28.8C2525.62,804.23,2521.14,809.18,2514.58,808.86Zm-11.53-39.08c-3.57-.18-5.84,2.72-6.08,7.75-.42,8.5,5.31,19.6,12.51,24.25a11.34,11.34,0,0,0,5.35,2c3.57.18,5.84-2.72,6.08-7.74.42-8.51-5.31-19.61-12.51-24.25A11.26,11.26,0,0,0,2503.05,769.78Z"/><path class="cls-95" d="M2253.11,1001.42a16.16,16.16,0,0,1-7.87-2.79c-8.83-5.7-15.36-18.35-14.85-28.8.39-7.85,5-12.92,11.44-12.6a16,16,0,0,1,7.87,2.79c8.84,5.7,15.37,18.35,14.85,28.8C2264.17,996.67,2259.57,1001.73,2253.11,1001.42Zm-11.54-39.09c-3.55-.17-5.82,2.73-6.07,7.75-.42,8.5,5.31,19.61,12.51,24.26a11.31,11.31,0,0,0,5.35,2c3.56.18,5.84-2.72,6.09-7.74.41-8.5-5.32-19.61-12.52-24.26A11.36,11.36,0,0,0,2241.57,962.33Z"/><path class="cls-96" d="M2618,910.31a16.16,16.16,0,0,1-7.87-2.79c-8.84-5.7-15.36-18.36-14.85-28.8.38-7.85,5-12.92,11.44-12.6a16.16,16.16,0,0,1,7.86,2.79c8.84,5.7,15.36,18.35,14.85,28.8C2629,905.56,2624.41,910.63,2618,910.31Zm-11.53-39.08c-3.56-.18-5.84,2.72-6.09,7.74-.42,8.5,5.32,19.61,12.52,24.26a11.27,11.27,0,0,0,5.35,2c3.56.18,5.84-2.72,6.08-7.74.42-8.51-5.31-19.61-12.52-24.26A11.27,11.27,0,0,0,2606.43,871.23Z"/><path class="cls-97" d="M2751,839.41a16,16,0,0,1-7.87-2.79c-8.83-5.7-15.36-18.34-14.85-28.79.39-7.85,5-12.92,11.44-12.6a16.06,16.06,0,0,1,7.87,2.79c8.84,5.69,15.37,18.34,14.85,28.79C2762.09,834.67,2757.49,839.73,2751,839.41Zm-11.53-39.08c-3.56-.17-5.83,2.73-6.08,7.75-.42,8.5,5.31,19.6,12.52,24.25a11.3,11.3,0,0,0,5.34,2c3.57.17,5.84-2.73,6.09-7.75.41-8.5-5.31-19.6-12.52-24.25A11.33,11.33,0,0,0,2739.5,800.33Z"/><path class="cls-98" d="M2946.65,1173.13a16.16,16.16,0,0,1-7.87-2.79c-8.84-5.71-15.37-18.35-14.86-28.8.39-7.85,5-12.92,11.44-12.6a16,16,0,0,1,7.87,2.79c8.84,5.7,15.37,18.35,14.85,28.8C2957.7,1168.38,2953.1,1173.44,2946.65,1173.13ZM2935.11,1134c-3.56-.17-5.83,2.72-6.08,7.75-.42,8.5,5.31,19.61,12.51,24.26a11.34,11.34,0,0,0,5.36,2c3.55.18,5.83-2.72,6.08-7.74.42-8.5-5.32-19.61-12.52-24.26A11.33,11.33,0,0,0,2935.11,1134Z"/><path class="cls-99" d="M2987.61,1418.2a16,16,0,0,1-7.87-2.79c-8.84-5.69-15.36-18.34-14.85-28.79.39-7.85,5-12.92,11.44-12.6a16.06,16.06,0,0,1,7.86,2.79c8.84,5.7,15.37,18.34,14.86,28.79C2998.66,1413.58,2994.16,1418.52,2987.61,1418.2Zm-11.54-39.07c-3.56-.18-5.83,2.72-6.08,7.74-.41,8.5,5.32,19.6,12.52,24.25a11.29,11.29,0,0,0,5.35,2c3.56.17,5.83-2.72,6.08-7.75.42-8.5-5.31-19.61-12.51-24.25A11.34,11.34,0,0,0,2976.07,1379.13Z"/><path class="cls-100" d="M2844.48,2213.57a33,33,0,0,1-16.07-4.73c-4.7-3-7.17-7-7-11.22s3-7.89,7.93-10.41c8.95-4.6,23.85-3.85,32.36,1.64,4.69,3,7.17,7,7,11.23s-3,7.88-7.93,10.4A32.74,32.74,0,0,1,2844.48,2213.57Zm.93-24.35a27.71,27.71,0,0,0-13.7,2.53c-3.22,1.65-5.05,3.83-5.16,6.11s1.58,4.72,4.63,6.69c7,4.52,19.87,5.18,27.25,1.39,3.22-1.65,5.05-3.82,5.16-6.11s-1.57-4.72-4.62-6.69A28.07,28.07,0,0,0,2845.41,2189.22Z"/><path class="cls-101" d="M2497.8,2109.51a33.06,33.06,0,0,1-16.07-4.74c-4.7-3-7.18-7-7-11.23s3-7.89,7.93-10.41c9-4.59,23.87-3.83,32.36,1.65,4.7,3,7.17,7,7,11.23s-3,7.88-7.92,10.4A32.82,32.82,0,0,1,2497.8,2109.51Zm.93-24.36a27.69,27.69,0,0,0-13.7,2.53c-3.22,1.65-5.05,3.82-5.16,6.11s1.57,4.72,4.63,6.68c7,4.52,19.87,5.18,27.25,1.4,3.22-1.65,5.05-3.82,5.16-6.11s-1.57-4.72-4.62-6.69A28,28,0,0,0,2498.73,2085.15Z"/><path class="cls-102" d="M2406.6,1935a33.13,33.13,0,0,1-16.08-4.73c-4.69-3-7.17-7-7-11.23s3-7.88,7.94-10.41c8.94-4.6,23.85-3.83,32.36,1.65,4.69,3,7.16,7,6.95,11.23s-3,7.88-7.93,10.4A32.67,32.67,0,0,1,2406.6,1935Zm.93-24.35a27.47,27.47,0,0,0-13.7,2.53c-3.22,1.65-5,3.83-5.16,6.11s1.57,4.72,4.63,6.69c7,4.52,19.88,5.18,27.25,1.39,3.22-1.66,5-3.83,5.16-6.11s-1.57-4.72-4.62-6.69A28,28,0,0,0,2407.53,1910.6Z"/><path class="cls-103" d="M2365.52,2245.24a33.16,33.16,0,0,1-16.08-4.73c-4.69-3-7.16-7-7-11.23s3-7.89,7.94-10.41c8.94-4.59,23.85-3.84,32.35,1.65,4.7,3,7.17,7,7,11.23s-3,7.88-7.93,10.4A32.81,32.81,0,0,1,2365.52,2245.24Zm.92-24.35a27.45,27.45,0,0,0-13.69,2.53c-3.22,1.65-5.05,3.83-5.16,6.11s1.57,4.72,4.62,6.68c7,4.53,19.88,5.18,27.26,1.4,3.21-1.66,5.05-3.83,5.16-6.11s-1.58-4.73-4.63-6.69A27.89,27.89,0,0,0,2366.44,2220.89Z"/><path class="cls-104" d="M2022.19,2177.21a33.16,33.16,0,0,1-16.08-4.73c-4.69-3-7.16-7-6.95-11.22s3-7.89,7.93-10.42c9-4.6,23.85-3.83,32.36,1.65,4.69,3,7.16,7,7,11.23s-3,7.88-7.93,10.4A32.63,32.63,0,0,1,2022.19,2177.21Zm.93-24.34a27.49,27.49,0,0,0-13.7,2.52c-3.22,1.65-5.05,3.83-5.16,6.11s1.58,4.72,4.62,6.69c7,4.52,19.88,5.18,27.26,1.4,3.22-1.66,5-3.83,5.16-6.12s-1.57-4.72-4.62-6.69A27.92,27.92,0,0,0,2023.12,2152.87Z"/><path class="cls-105" d="M1939.9,1991.35a33,33,0,0,1-16.07-4.74c-4.7-3-7.17-7-7-11.22s3-7.89,7.93-10.41c8.94-4.6,23.85-3.84,32.35,1.65,4.7,3,7.18,7,7,11.23s-3,7.87-7.93,10.4A32.82,32.82,0,0,1,1939.9,1991.35Zm.93-24.35a27.58,27.58,0,0,0-13.7,2.52c-3.22,1.66-5.05,3.82-5.16,6.12s1.57,4.71,4.62,6.68c7,4.53,19.89,5.19,27.27,1.39,3.21-1.65,5-3.82,5.16-6.1s-1.59-4.72-4.63-6.7A28,28,0,0,0,1940.83,1967Z"/><path class="cls-106" d="M1605.11,2092.38a33,33,0,0,1-16.07-4.73c-4.7-3-7.17-7-7-11.23s3-7.88,7.94-10.4c9-4.6,23.86-3.84,32.35,1.64,4.7,3,7.17,7,7,11.23s-3,7.89-7.94,10.4A32.67,32.67,0,0,1,1605.11,2092.38ZM1606,2068a27.71,27.71,0,0,0-13.7,2.53c-3.22,1.66-5,3.83-5.16,6.11s1.57,4.72,4.62,6.69c7,4.52,19.88,5.18,27.26,1.39,3.21-1.65,5-3.82,5.16-6.11s-1.58-4.72-4.63-6.68A27.86,27.86,0,0,0,1606,2068Z"/><path class="cls-107" d="M2034.63,1845.5a33.05,33.05,0,0,1-16.06-4.73c-4.7-3-7.17-7-7-11.24s3-7.88,7.94-10.4c8.94-4.59,23.85-3.83,32.35,1.65,4.71,3,7.18,7,7,11.23s-3,7.88-7.94,10.4A32.69,32.69,0,0,1,2034.63,1845.5Zm.94-24.35a27.58,27.58,0,0,0-13.7,2.53c-3.22,1.65-5,3.82-5.16,6.1s1.57,4.73,4.63,6.7c7,4.52,19.87,5.17,27.25,1.38,3.22-1.65,5-3.82,5.16-6.1s-1.58-4.72-4.63-6.69A28,28,0,0,0,2035.57,1821.15Z"/><path class="cls-108" d="M1465,1793.07a33,33,0,0,1-16.08-4.74c-4.7-3-7.17-7-7-11.23s3-7.88,7.93-10.4c9-4.6,23.86-3.84,32.36,1.65,4.69,3,7.17,7,7,11.23s-3,7.88-7.93,10.39A32.81,32.81,0,0,1,1465,1793.07Zm.92-24.36a27.6,27.6,0,0,0-13.7,2.54c-3.22,1.65-5,3.82-5.16,6.1s1.57,4.72,4.63,6.69c7,4.52,19.88,5.18,27.26,1.39,3.21-1.65,5-3.82,5.16-6.1s-1.58-4.72-4.63-6.69A28.07,28.07,0,0,0,1465.88,1768.71Z"/><path class="cls-109" d="M1424.67,1470.82a33.09,33.09,0,0,1-16.07-4.73c-4.7-3-7.17-7-7-11.24s3-7.88,7.92-10.4c9-4.59,23.86-3.84,32.36,1.65,4.7,3,7.17,7,7,11.23s-3,7.88-7.93,10.4A32.71,32.71,0,0,1,1424.67,1470.82Zm.93-24.35a27.6,27.6,0,0,0-13.7,2.53c-3.21,1.65-5.05,3.82-5.16,6.1s1.58,4.72,4.63,6.7c7,4.52,19.88,5.17,27.25,1.39,3.22-1.66,5.05-3.83,5.16-6.11s-1.57-4.72-4.62-6.69A28,28,0,0,0,1425.6,1446.47Z"/></g></g></g></g></svg>