<svg width="1634" height="247" viewBox="0 0 1634 247" fill="none" xmlns="http://www.w3.org/2000/svg">
<path d="M137.194 16.3148V65.2647C137.194 72.0164 142.816 77.6429 149.564 77.6429H198.481C186.111 51.7613 165.307 30.3809 139.443 17.4401L137.194 16.3148Z" fill="#0492EB" fill-opacity="0.292884"/>
<path d="M186.674 100.15H131.571C122.575 100.15 115.265 92.836 115.265 83.8337V20.2551C115.265 9.00228 106.269 0 95.0237 0H21.3663C9.55859 0 0 9.56492 0 21.3804V225.62C0 237.435 9.55859 247 21.3663 247H185.549C197.357 247 206.915 237.435 206.915 225.62V120.405C206.915 109.153 197.919 100.15 186.674 100.15Z" fill="#0492EB"/>
<path d="M369.053 223.135C403.777 223.135 426.745 200.153 426.745 159.66C426.745 119.988 406.238 98.9211 372.334 98.9211C356.202 98.9211 343.899 104.94 335.423 116.705C336.243 108.223 336.79 100.289 336.79 93.4491V45.8427H302.886V220.399H330.501L332.688 203.436C340.071 216.569 352.375 223.135 369.053 223.135ZM335.423 162.67C335.423 142.697 345.266 126.281 363.858 126.281C380.263 126.281 390.927 138.867 390.927 161.028C390.927 183.737 379.99 196.323 362.765 196.323C346.086 196.323 335.423 183.737 335.423 162.67Z" fill="#2F363F"/>
<path d="M455.503 206.993C466.166 217.663 481.204 223.135 501.164 223.135C542.997 223.135 566.784 199.332 566.784 160.755C566.784 122.451 544.637 98.9211 505.538 98.9211C484.485 98.9211 468.353 104.667 456.87 115.884C445.113 127.375 439.371 142.697 439.371 162.123C439.371 181.548 444.839 196.323 455.503 206.993ZM475.189 161.302C475.189 139.414 486.672 126.007 504.171 126.007C520.85 126.007 530.966 139.414 530.966 161.302C530.966 182.369 520.03 196.323 502.804 196.323C485.579 196.323 475.189 182.916 475.189 161.302Z" fill="#2F363F"/>
<path d="M632.054 223.135C645.452 223.135 655.842 219.852 663.224 213.012L654.475 187.841C650.92 190.851 646.272 192.492 641.077 192.492C632.054 192.492 627.406 186.473 627.406 174.161V129.838H660.763V101.383H627.406V61.4379H596.51L592.956 97.8267C592.682 100.289 591.315 101.383 588.854 101.383H576.004V129.838H593.229V180.454C593.229 211.371 607.173 223.135 632.054 223.135Z" fill="#2F363F"/>
<path d="M740.508 128.743C753.905 128.743 760.741 137.225 760.741 154.462V220.399H794.645V147.348C799.293 135.036 806.949 128.743 817.065 128.743C830.463 128.743 837.298 137.225 837.298 154.462V220.399H871.202V146.801C871.202 114.79 856.711 98.9211 828.002 98.9211C810.777 98.9211 797.652 106.035 788.63 120.535C782.888 106.035 770.857 98.9211 752.538 98.9211C735.039 98.9211 722.462 106.582 714.806 122.177C715.08 120.262 715.08 117.799 715.08 114.243V101.383H683.91V220.399H717.814V147.895C722.462 135.036 730.118 128.743 740.508 128.743Z" fill="#2F363F"/>
<path d="M917.675 84.4203C931.072 84.4203 939.548 76.4859 939.548 64.4475C939.548 52.6827 931.072 44.7483 917.675 44.7483C904.551 44.7483 896.075 52.6827 896.075 64.4475C896.075 76.4859 904.551 84.4203 917.675 84.4203ZM900.723 220.399H934.627V101.383H900.723V220.399Z" fill="#2F363F"/>
<path d="M1024.09 128.743C1037.49 128.743 1044.6 136.404 1044.6 156.377V220.399H1078.5V146.801C1078.5 114.79 1064.01 98.9211 1035.3 98.9211C1017.53 98.9211 1004.95 106.855 997.571 122.724C997.844 120.809 997.844 118.073 997.844 114.243V101.383H966.674V220.399H1000.58V148.443C1005.77 135.31 1013.43 128.743 1024.09 128.743Z" fill="#2F363F"/>
<path d="M1189.95 159.387C1189.95 179.907 1180.11 196.049 1161.51 196.049C1145.38 196.049 1134.44 183.19 1134.44 161.028C1134.44 138.867 1145.38 126.007 1162.61 126.007C1179.29 126.007 1189.95 138.319 1189.95 159.387ZM1224.4 220.399V45.8427H1190.5V112.601C1182.84 103.572 1171.08 98.9211 1155.5 98.9211C1121.32 98.9211 1098.63 122.724 1098.63 162.396C1098.63 202.068 1118.86 223.135 1153.04 223.135C1170.26 223.135 1183.39 216.295 1191.86 202.615C1193.23 209.729 1194.32 215.748 1194.87 220.399H1224.4Z" fill="#2F363F"/>
<path d="M1355.91 137.499C1355.63 113.148 1336.49 98.9211 1302.32 98.9211C1270.87 98.9211 1249.82 112.875 1249.82 133.942C1249.82 140.235 1251.73 145.433 1253.37 149.537C1255.01 153.641 1260.48 157.471 1262.94 159.66C1265.13 162.123 1274.15 165.132 1276.61 166.227C1277.71 166.774 1280.44 167.595 1284.54 168.415C1288.64 169.236 1291.11 169.783 1291.93 170.057C1292.75 170.331 1295.21 170.878 1299.58 171.699C1305.32 173.067 1309.42 174.161 1311.89 174.982C1316.81 176.624 1322 180.454 1322 186.199C1322 194.134 1314.62 198.511 1303.68 198.511C1290.56 198.511 1283.18 194.408 1280.72 182.369L1247.08 183.19C1247.36 211.644 1267.86 223.135 1305.32 223.135C1335.67 223.135 1357 210.55 1357 186.747C1356.73 174.435 1351.8 165.406 1341.69 159.113C1336.22 156.103 1325.28 152.547 1308.88 148.716C1301.5 147.075 1296.57 145.98 1294.66 145.159C1288.1 143.244 1284.82 139.414 1284.82 134.215C1284.82 127.923 1291.93 123.545 1303.14 123.545C1316.53 123.545 1323.37 129.838 1323.37 139.414L1355.91 137.499Z" fill="#2F363F"/>
<path d="M1412.69 223.409C1426.09 223.409 1435.11 214.654 1435.11 201.521C1435.11 188.662 1426.09 179.907 1412.69 179.907C1399.57 179.907 1390.54 188.662 1390.54 201.521C1390.54 214.654 1399.57 223.409 1412.69 223.409Z" fill="#0492EB"/>
<path d="M1558.52 223.135C1565.63 223.135 1571.64 221.22 1576.57 217.663L1573.28 194.408C1572.19 194.955 1571.1 195.228 1569.73 195.228C1565.9 195.228 1563.99 192.219 1563.99 186.199V141.876C1563.99 113.148 1546.49 98.9211 1511.22 98.9211C1479.77 98.9211 1459.27 113.969 1455.71 140.508L1486.06 142.15C1487.7 130.932 1495.36 125.187 1509.03 125.187C1522.15 125.187 1530.36 131.753 1530.36 144.065V151.452H1507.94C1471.03 151.452 1452.71 164.038 1452.71 189.209C1452.71 212.465 1470.21 223.135 1494.54 223.135C1512.86 223.135 1525.71 216.296 1533.37 202.342C1535.55 217.39 1545.67 223.135 1558.52 223.135ZM1530.63 170.057C1530.63 188.662 1518.05 198.785 1504.11 198.785C1492.9 198.785 1487.43 194.408 1487.43 185.652C1487.43 175.255 1495.63 170.057 1511.77 170.057H1530.63Z" fill="#0492EB"/>
<path d="M1611.9 84.4203C1625.3 84.4203 1633.77 76.4859 1633.77 64.4475C1633.77 52.6827 1625.3 44.7483 1611.9 44.7483C1598.78 44.7483 1590.3 52.6827 1590.3 64.4475C1590.3 76.4859 1598.78 84.4203 1611.9 84.4203ZM1594.95 220.399H1628.85V101.383H1594.95V220.399Z" fill="#0492EB"/>
</svg>
